<svg width="30" height="30" viewBox="0 0 30 30" fill="none" xmlns="http://www.w3.org/2000/svg">
<path d="M20.3448 17.6493L16.162 14.5122V8.12187C16.162 7.47934 15.6426 6.95996 15.0001 6.95996C14.3575 6.95996 13.8381 7.47934 13.8381 8.12187V15.0932C13.8381 15.4592 14.0101 15.8043 14.3029 16.0228L18.9504 19.5085C19.1596 19.6653 19.4036 19.7408 19.6464 19.7408C20.0008 19.7408 20.3494 19.5816 20.5771 19.2749C20.963 18.7624 20.8584 18.0339 20.3448 17.6493Z" fill="#00F0FF"/>
<path d="M15 0C6.7285 0 0 6.7285 0 15C0 23.2715 6.7285 30 15 30C23.2715 30 30 23.2715 30 15C30 6.7285 23.2715 0 15 0ZM15 27.6762C8.01123 27.6762 2.32377 21.9888 2.32377 15C2.32377 8.01123 8.01123 2.32377 15 2.32377C21.9899 2.32377 27.6762 8.01123 27.6762 15C27.6762 21.9888 21.9888 27.6762 15 27.6762Z" fill="#00F0FF"/>
</svg>
