<svg width="31" height="31" viewBox="0 0 31 31" fill="none" xmlns="http://www.w3.org/2000/svg">
<path d="M23.2487 0.00645007L19.2288 0C14.7125 0 11.7938 2.99444 11.7938 7.62914V11.1467H7.75194C7.40268 11.1467 7.11984 11.4298 7.11984 11.7791V16.8756C7.11984 17.2249 7.403 17.5077 7.75194 17.5077H11.7938V30.3679C11.7938 30.7172 12.0767 31 12.4259 31H17.6995C18.0487 31 18.3316 30.7168 18.3316 30.3679V17.5077H23.0575C23.4067 17.5077 23.6896 17.2249 23.6896 16.8756L23.6915 11.7791C23.6915 11.6114 23.6248 11.4508 23.5064 11.3321C23.388 11.2134 23.2268 11.1467 23.0591 11.1467H18.3316V8.16482C18.3316 6.73161 18.6731 6.00405 20.54 6.00405L23.2481 6.00308C23.597 6.00308 23.8798 5.71992 23.8798 5.37097V0.638557C23.8798 0.289931 23.5973 0.00709508 23.2487 0.00645007Z" fill="#202020"/>
</svg>
