<svg width="31" height="31" viewBox="0 0 31 31" fill="none" xmlns="http://www.w3.org/2000/svg">
<g clip-path="url(#clip0)">
<path d="M15.4948 7.54102C19.8904 7.54102 23.4489 11.1034 23.4489 15.4951C23.4489 19.8906 19.8865 23.4492 15.4948 23.4492C11.0993 23.4492 7.54076 19.8868 7.54076 15.4951C7.54076 11.0996 11.1032 7.54102 15.4948 7.54102ZM15.4948 20.6579C18.3481 20.6579 20.6576 18.3471 20.6576 15.4951C20.6576 12.6431 18.3468 10.3323 15.4948 10.3323C12.6428 10.3323 10.332 12.6431 10.332 15.4951C10.3308 18.3471 12.6415 20.6579 15.4948 20.6579Z" fill="#202020"/>
<path d="M9.10923 0.0993275C11.9612 -0.0337141 19.0254 -0.0272558 21.8799 0.0993275C24.3884 0.216869 26.601 0.82266 28.3848 2.60645C31.3659 5.58762 30.9849 9.6047 30.9849 15.496C30.9849 21.5255 31.3207 25.4496 28.3848 28.3855C25.392 31.377 21.3168 30.9856 15.4952 30.9856C9.52256 30.9856 7.46106 30.9895 5.34919 30.1719C2.47781 29.0572 0.310392 26.4906 0.0985603 21.8807C-0.0357742 19.0274 -0.0280247 11.9646 0.0985603 9.10999C0.354309 3.6682 3.27477 0.367994 9.10923 0.0993275ZM4.59485 26.4131C6.54914 28.3674 9.26035 28.1931 15.5327 28.1931C21.991 28.1931 24.5808 28.2886 26.4705 26.3938C28.647 24.2277 28.253 20.7492 28.253 15.4753C28.253 8.33887 28.9854 3.19933 21.8231 2.83249C20.1775 2.77437 19.6931 2.75499 15.5508 2.75499L15.4926 2.79374C8.60935 2.79374 3.20889 2.07299 2.88468 9.23399C2.81106 10.8679 2.79427 11.3588 2.79427 15.4947C2.79556 21.8781 2.67414 24.4834 4.59485 26.4131Z" fill="#202020"/>
<path d="M7.22558 9.08558C6.19905 9.08558 5.36688 8.25341 5.36688 7.22687C5.36688 6.20033 6.19905 5.36816 7.22558 5.36816C8.25212 5.36816 9.08429 6.20033 9.08429 7.22687C9.08429 8.25341 8.25212 9.08558 7.22558 9.08558Z" fill="#202020"/>
</g>
<defs>
<clipPath id="clip0">
<rect width="31" height="31" fill="white" transform="matrix(-1 0 0 1 31 0)"/>
</clipPath>
</defs>
</svg>
