<svg width="30" height="30" viewBox="0 0 30 30" fill="none" xmlns="http://www.w3.org/2000/svg">
<g clip-path="url(#clip0)">
<path d="M14.9999 0C8.83123 0 3.81274 5.02051 3.81274 11.1916C3.81274 20.3862 13.8864 29.3639 14.3154 29.7416C14.5109 29.9139 14.7554 30.0001 14.9999 30.0001C15.2445 30.0001 15.4889 29.914 15.6846 29.7416C16.1134 29.364 26.1871 20.3863 26.1871 11.1916C26.1871 5.02051 21.1686 0 14.9999 0ZM14.9999 27.5444C12.7727 25.3862 5.88446 18.1475 5.88446 11.1916C5.88446 6.16293 9.97365 2.07172 14.9999 2.07172C20.0262 2.07172 24.1154 6.16293 24.1154 11.1916C24.1154 18.1474 17.2271 25.3861 14.9999 27.5444Z" fill="#00F0FF"/>
<path d="M15.0003 5.97803C12.1444 5.97803 9.82111 8.31681 9.82111 11.1916C9.82111 14.0664 12.1444 16.4051 15.0003 16.4051C17.8562 16.4051 20.1795 14.0664 20.1795 11.1916C20.1795 8.31681 17.8562 5.97803 15.0003 5.97803ZM15.0003 14.3334C13.2868 14.3334 11.8927 12.924 11.8927 11.1916C11.8927 9.45923 13.2868 8.04974 15.0003 8.04974C16.7138 8.04974 18.1079 9.45913 18.1079 11.1916C18.1079 12.924 16.7138 14.3334 15.0003 14.3334Z" fill="#00F0FF"/>
</g>
<defs>
<clipPath id="clip0">
<rect width="30" height="30" fill="white"/>
</clipPath>
</defs>
</svg>
