<svg width="34" height="34" viewBox="0 0 34 34" fill="none" xmlns="http://www.w3.org/2000/svg">
<path d="M31.2133 24.017L27.0179 19.8304C25.5196 18.3352 22.9724 18.9333 22.373 20.877C21.9235 22.2228 20.4252 22.9704 19.0766 22.6713C16.0799 21.9237 12.0344 18.0361 11.2852 14.8962C10.8357 13.5504 11.7347 12.0552 13.0832 11.6067C15.0311 11.0086 15.6304 8.46678 14.1321 6.97157L9.93665 2.78498C8.73797 1.73834 6.93994 1.73834 5.89109 2.78498L3.04422 5.62588C0.197338 8.6163 3.34389 16.5409 10.3862 23.5684C17.4284 30.5959 25.3697 33.8854 28.3664 30.8949L31.2133 28.054C32.2622 26.8579 32.2622 25.0636 31.2133 24.017Z" stroke="#00F0FF" stroke-width="2.5"/>
</svg>
