<svg width="208" height="56" viewBox="0 0 208 56" fill="none" xmlns="http://www.w3.org/2000/svg">
<path fill-rule="evenodd" clip-rule="evenodd" d="M0 27.3808C0.418027 27.3808 0.806198 27.3808 1.22423 27.3808C3.07549 27.4107 4.92675 27.3808 6.77802 27.4405C9.46534 27.5301 11.4659 28.7842 12.6304 31.1729C13.7949 33.5915 13.4963 35.9504 11.9138 38.1301C11.8541 38.2197 11.7645 38.3092 11.7048 38.4287V38.4585C12.9589 39.7126 13.7053 41.2056 13.8546 42.9673C14.1831 46.4309 11.7645 49.7453 8.33069 50.432C7.76337 50.5515 7.13633 50.5813 6.53914 50.5813C4.35943 50.6112 2.17971 50.641 0 50.641C0 42.9075 0 35.1442 0 27.3808ZM4.23999 40.8473C4.23999 42.6687 4.23999 44.5199 4.23999 46.4011C5.19549 46.4011 6.12112 46.4309 7.04675 46.4011C8.39041 46.3413 9.52505 45.1768 9.61463 43.863C9.70421 42.3999 8.77858 41.0563 7.40506 40.8771C6.38985 40.7577 5.31492 40.8473 4.23999 40.8473ZM4.23999 36.4878C5.07605 36.4878 5.88224 36.4878 6.68844 36.4878C7.97238 36.4878 8.98759 35.5025 9.04731 34.2185C9.10703 32.845 8.18139 31.7402 6.83773 31.6805C6.03154 31.6506 5.19549 31.6805 4.35943 31.6805C4.32957 31.6805 4.26985 31.7104 4.23999 31.7104C4.23999 33.2929 4.23999 34.8754 4.23999 36.4878Z" fill="black"/>
<path fill-rule="evenodd" clip-rule="evenodd" d="M152.729 27.4405C149.773 35.2636 146.847 43.0568 143.891 50.9396C141.443 46.1622 139.054 41.5042 136.635 36.7566C134.217 41.4743 131.798 46.1622 129.35 50.9396C126.423 43.0568 123.527 35.2636 120.601 27.4405C120.75 27.4405 120.84 27.4107 120.959 27.4107C122.243 27.4107 123.527 27.4107 124.781 27.4107C125.05 27.4107 125.169 27.5002 125.259 27.7391C126.782 31.8298 128.305 35.9205 129.827 40.0112C129.857 40.1008 129.887 40.1904 129.977 40.3695C132.216 36.0101 134.396 31.7104 136.605 27.3808C138.815 31.7104 140.995 35.9802 143.234 40.3396C143.294 40.1904 143.354 40.0709 143.383 39.9813C144.936 35.8906 146.489 31.8298 148.012 27.7391C148.101 27.4704 148.25 27.3808 148.519 27.3808C149.773 27.4107 151.027 27.3808 152.281 27.3808C152.461 27.4405 152.58 27.4405 152.729 27.4405Z" fill="black"/>
<path fill-rule="evenodd" clip-rule="evenodd" d="M196.533 43.0568C196.533 45.7143 196.533 48.3419 196.533 50.9993C195.099 50.9993 193.696 50.9993 192.263 50.9993C192.263 43.1165 192.263 35.2934 192.263 27.4405C192.293 27.4106 192.322 27.4106 192.322 27.4106C193.756 27.4106 195.219 27.4405 196.652 27.4405C197.398 27.4405 198.145 27.4106 198.862 27.4405C202.116 27.5898 204.385 29.232 205.669 32.1582C206.924 34.9949 206.505 37.712 204.535 40.1306C203.848 40.9965 202.982 41.6534 201.997 42.1312C201.907 42.161 201.818 42.2208 201.698 42.2805C203.43 45.1768 205.132 48.0433 206.894 50.9695C206.744 50.9695 206.655 50.9993 206.565 50.9993C205.102 50.9993 203.639 50.9993 202.206 50.9993C201.967 50.9993 201.847 50.9098 201.728 50.7306C200.265 48.2822 198.802 45.8636 197.369 43.4151C197.219 43.0867 197.01 42.9075 196.533 43.0568ZM196.562 31.7999C196.562 34.0991 196.562 36.3982 196.562 38.6974C197.309 38.6974 198.055 38.7272 198.772 38.6974C200.564 38.5779 201.907 37.2343 202.027 35.5323C202.146 33.6811 201.011 32.0985 199.25 31.8298C198.384 31.6805 197.488 31.7999 196.562 31.7999Z" fill="black"/>
<path fill-rule="evenodd" clip-rule="evenodd" d="M53.7762 27.4106C55.1796 27.4106 56.5531 27.4106 57.9863 27.4106C57.9863 27.5301 57.9863 27.6794 57.9863 27.8287C57.9863 32.5165 57.9863 37.2044 57.9863 41.8923C57.9863 42.4596 58.0162 43.027 58.1356 43.5943C58.4939 45.565 60.2556 46.9086 62.2562 46.7892C63.8089 46.6996 65.7497 45.4157 65.8691 43.1762C65.899 42.6686 65.9289 42.161 65.9289 41.6833C65.9289 37.085 65.9289 32.4867 65.9289 27.8884C65.9289 27.7391 65.9289 27.5898 65.9289 27.4106C67.3621 27.4106 68.7356 27.4106 70.139 27.4106C70.139 27.5002 70.1688 27.6197 70.1688 27.7092C70.1688 32.5464 70.1688 37.3537 70.1688 42.1909C70.1688 43.8332 69.9001 45.4157 69.0939 46.8788C67.4218 49.8647 63.9581 51.5368 60.6438 50.9396C57.1801 50.3424 54.4331 47.6253 53.9255 44.1915C53.7762 43.1464 53.7762 42.0715 53.7463 41.0264C53.7165 39.3244 53.7762 37.6225 53.7762 35.9504C53.7762 33.263 53.7762 30.5757 53.7762 27.8884C53.7762 27.7391 53.7762 27.5898 53.7762 27.4106Z" fill="black"/>
<path fill-rule="evenodd" clip-rule="evenodd" d="M179.692 27.3211C183.604 35.2636 187.485 43.1165 191.367 51.0292C191.248 51.0292 191.128 51.0591 191.039 51.0591C189.695 51.0591 188.351 51.0591 186.978 51.0591C186.739 51.0591 186.619 50.9993 186.53 50.7903C185.753 49.1779 184.947 47.5655 184.171 45.983C184.081 45.774 183.962 45.6844 183.723 45.6844C181.155 45.6844 178.587 45.6844 176.019 45.6844C175.781 45.6844 175.661 45.774 175.571 45.983C174.825 47.5655 174.079 49.1481 173.332 50.7605C173.213 50.9993 173.093 51.0889 172.824 51.0889C171.391 51.0591 169.958 51.0889 168.465 51.0889C172.197 43.1464 175.93 35.2636 179.692 27.3211ZM179.782 37.0551C179.065 38.6078 178.348 40.1008 177.662 41.6236C179.125 41.6236 180.558 41.6236 182.021 41.6236C181.245 40.1008 180.528 38.6078 179.782 37.0551Z" fill="black"/>
<path fill-rule="evenodd" clip-rule="evenodd" d="M153.685 51.0292C153.685 43.1464 153.685 35.2934 153.685 27.4106C157.955 27.4106 162.224 27.4106 166.524 27.4106C166.524 28.814 166.524 30.2174 166.524 31.6506C163.688 31.6506 160.851 31.6506 157.984 31.6506C157.984 33.5019 157.984 35.3233 157.984 37.2044C160.104 37.2044 162.195 37.2044 164.315 37.2044C164.315 38.6377 164.315 40.041 164.315 41.4743C162.224 41.4743 160.104 41.4743 157.984 41.4743C157.984 43.236 157.984 44.9678 157.984 46.7295C160.821 46.7295 163.658 46.7295 166.524 46.7295C166.524 48.1926 166.524 49.596 166.524 51.0292C162.224 51.0292 157.955 51.0292 153.685 51.0292Z" fill="black"/>
<path fill-rule="evenodd" clip-rule="evenodd" d="M30.1278 50.6709C33.8005 42.8777 37.4731 35.1143 41.1458 27.3211C44.9976 35.1143 48.7897 42.8777 52.6416 50.6709C52.3131 50.6709 52.0444 50.6709 51.7757 50.6709C50.641 50.6709 49.4765 50.6709 48.3419 50.6709C48.103 50.6709 47.9836 50.6112 47.894 50.3723C47.1475 48.8196 46.3413 47.2371 45.5948 45.6844C45.4754 45.4157 45.3261 45.356 45.0574 45.356C42.5791 45.356 40.1007 45.356 37.6523 45.356C37.3537 45.356 37.2044 45.4455 37.085 45.7143C36.3684 47.267 35.6517 48.7898 34.9351 50.3424C34.8157 50.5813 34.6962 50.6709 34.4275 50.6709C33.0241 50.6709 31.6208 50.6709 30.1278 50.6709ZM43.445 41.4146C42.7283 39.9216 42.0117 38.4585 41.2652 36.9357C40.5486 38.4585 39.8619 39.9216 39.1751 41.4146C40.6083 41.4146 41.9819 41.4146 43.445 41.4146Z" fill="black"/>
<path fill-rule="evenodd" clip-rule="evenodd" d="M19.8264 31.5611C19.8264 33.4123 19.8264 35.2039 19.8264 37.0253C21.9165 37.0253 23.9768 37.0253 26.067 37.0253C26.067 38.4287 26.067 39.8022 26.067 41.2056C23.9768 41.2056 21.9165 41.2056 19.8264 41.2056C19.8264 42.9374 19.8264 44.6394 19.8264 46.4011C22.6332 46.4011 25.4101 46.4011 28.2168 46.4011C28.2168 47.8343 28.2168 49.2377 28.2168 50.641C24.0067 50.641 19.8264 50.641 15.6163 50.641C15.6163 42.9075 15.6163 35.1442 15.6163 27.3808C19.8264 27.3808 24.0067 27.3808 28.2168 27.3808C28.2168 28.7543 28.2168 30.1278 28.2168 31.5611C25.4101 31.5611 22.6033 31.5611 19.8264 31.5611Z" fill="black"/>
<path fill-rule="evenodd" clip-rule="evenodd" d="M85.815 27.6196C87.3378 27.6196 88.8009 27.6196 90.264 27.6196C90.3834 27.6196 90.5327 27.7988 90.5925 27.9182C91.9361 30.725 93.2798 33.5317 94.5936 36.3385C94.6533 36.4878 94.7429 36.6072 94.8324 36.7864C94.922 36.6371 94.9817 36.5177 95.0116 36.4281C96.3553 33.5915 97.6989 30.7549 99.0127 27.9182C99.1322 27.6794 99.2217 27.5898 99.4905 27.6196C100.924 27.6196 102.327 27.6196 103.82 27.6196C103.76 27.7689 103.701 27.8884 103.641 28.0078C101.491 32.5763 99.3412 37.1447 97.1913 41.743C97.0719 41.9819 97.0122 42.2506 97.0122 42.5193C97.0122 45.0872 97.0122 47.6252 97.0122 50.1931C97.0122 50.3424 97.0122 50.4917 97.0122 50.641C95.5789 50.641 94.2054 50.641 92.7423 50.641C92.7423 50.4917 92.7423 50.3424 92.7423 50.223C92.7423 47.7148 92.7423 45.1768 92.7423 42.6686C92.7423 42.4596 92.6826 42.2207 92.593 42.0117C90.3834 37.3238 88.1739 32.6658 85.9344 27.978C85.9344 27.8884 85.8747 27.7689 85.815 27.6196Z" fill="black"/>
<path fill-rule="evenodd" clip-rule="evenodd" d="M75.7525 31.6208C74.2595 31.6208 72.8263 31.6208 71.3931 31.6208C71.3931 30.2174 71.3931 28.8439 71.3931 27.4405C75.7525 27.4405 80.0821 27.4405 84.4714 27.4405C84.4714 28.814 84.4714 30.2174 84.4714 31.6208C82.9784 31.6208 81.4854 31.6208 79.9626 31.6208C79.9626 37.9808 79.9626 44.3109 79.9626 50.641C78.5294 50.641 77.1559 50.641 75.7525 50.641C75.7525 44.3109 75.7525 37.9808 75.7525 31.6208Z" fill="black"/>
<path fill-rule="evenodd" clip-rule="evenodd" d="M88.2933 4.5983C88.8308 5.28506 89.3085 6.00167 89.846 6.65857C91.6376 8.80843 93.8471 10.4507 96.3553 11.6749C98.2961 12.6304 100.327 13.4366 102.297 14.3025C104.776 15.3774 107.075 16.751 108.986 18.6918C110.747 20.4833 111.942 22.6033 112.688 24.9921C112.688 25.0219 112.688 25.0219 112.688 25.1115C112.629 25.0518 112.599 25.0219 112.569 24.9622C111.016 22.1554 108.777 20.0355 106.089 18.3633C103.551 16.7808 100.804 15.6462 98.0274 14.4817C95.4595 13.4067 93.1305 11.9735 91.2494 9.88336C89.9057 8.36054 88.9502 6.62872 88.2933 4.74759C88.2933 4.71773 88.2933 4.65802 88.2933 4.5983Z" fill="black"/>
<path fill-rule="evenodd" clip-rule="evenodd" d="M117.048 19.1397C116.928 18.9605 116.809 18.7814 116.689 18.5723C114.958 16.0045 112.628 14.0935 109.881 12.6901C108 11.7346 106 10.9583 104.059 10.0924C101.252 8.83828 98.7739 7.16617 96.9226 4.62814C96.0567 3.40392 95.3699 2.09012 94.922 0.656881C94.8623 0.507586 94.8922 0.358293 94.9519 0.179138C95.0713 0.418011 95.2206 0.656885 95.3401 0.865898C96.9226 3.64279 99.1919 5.64335 101.939 7.22588C103.73 8.24109 105.641 9.04729 107.552 9.82363C110.001 10.809 112.21 12.0929 114.062 14.0338C115.405 15.4371 116.361 17.0794 117.018 18.9307C117.048 18.9904 117.048 19.0501 117.077 19.1397C117.077 19.1397 117.078 19.1397 117.048 19.1397Z" fill="black"/>
<path fill-rule="evenodd" clip-rule="evenodd" d="M105.462 46.6698C105.223 45.4754 105.164 44.281 105.283 43.0867C105.552 40.1008 106.776 37.4433 108.508 35.0546C109.463 33.7109 110.509 32.427 111.554 31.1132C113.166 29.0529 114.181 26.694 115.017 24.2456C115.376 23.2304 115.764 22.2152 116.122 21.2298C116.152 21.1104 116.212 20.9909 116.301 20.9014C116.122 22.8721 116.212 24.8726 115.525 26.7537C114.599 29.2619 113.285 31.5611 111.643 33.6512C110.18 35.5323 108.777 37.4433 107.642 39.5633C106.418 41.7729 105.641 44.1318 105.462 46.6698Z" fill="black"/>
<path fill-rule="evenodd" clip-rule="evenodd" d="M115.017 37.1746C115.286 38.6675 115.047 40.0709 114.51 41.4146C113.823 43.2061 112.748 44.7289 111.524 46.192C110.18 47.8044 108.956 49.5064 108.18 51.4472C107.732 52.5819 107.433 53.7464 107.373 54.9408C107.373 55.0005 107.343 55.0602 107.314 55.1199C107.105 54.4331 107.045 53.7165 107.075 53.0298C107.194 50.6112 108.239 48.5808 109.643 46.6996C109.971 46.2518 110.329 45.8337 110.688 45.4157C111.882 44.0422 112.569 42.3701 113.345 40.7875C113.883 39.6827 114.39 38.5182 114.898 37.4135C114.928 37.3239 114.987 37.2343 115.017 37.1746Z" fill="black"/>
</svg>
