<svg width="303" height="303" viewBox="0 0 303 303" fill="none" xmlns="http://www.w3.org/2000/svg">
<path fill-rule="evenodd" clip-rule="evenodd" d="M54.7435 120.929L37.6406 123.423L30.5064 145.823L30.2902 124.492L16.5262 126.511L17.1748 188.318L30.9148 186.37L30.6986 164.778L38.2652 185.325L55.3201 182.902L42.3728 153.543L54.7435 120.929ZM85.8747 129.599C85.8987 129.504 85.8987 129.433 85.8987 129.385C85.8747 124.872 84.2893 121.618 81.2146 119.647C78.4042 117.841 74.7049 117.271 70.1169 117.936C65.6491 118.601 62.0459 120.122 59.3315 122.544C56.1127 125.252 54.5274 128.744 54.5514 133.067L54.8877 170.788C54.9357 175.087 56.5691 178.104 59.86 179.885C62.5984 181.501 66.2015 182 70.6454 181.358C75.2334 180.717 78.8846 179.078 81.647 176.465C84.6976 173.615 86.211 169.909 86.1629 165.372L86.1389 165.325L85.8747 129.599ZM71.9425 169.553C71.5582 169.98 71.1258 170.218 70.6214 170.289C70.1169 170.36 69.6846 170.242 69.3243 169.957C68.9639 169.671 68.7478 169.268 68.7237 168.793L68.6997 168.698L68.3874 131.262L68.4115 131.167C68.4355 130.668 68.6277 130.193 68.988 129.789C69.3483 129.385 69.7807 129.148 70.2851 129.077C70.7895 129.005 71.2459 129.124 71.6303 129.433C71.9906 129.766 72.1827 130.193 72.1827 130.692L72.495 168.151C72.495 168.65 72.3028 169.125 71.9425 169.553ZM113.595 142.094L106.557 138.008C103.434 135.846 101.873 133.471 101.849 130.858L101.825 126.274C101.849 125.775 102.041 125.3 102.401 124.896C102.761 124.492 103.194 124.255 103.698 124.183C104.227 124.112 104.683 124.231 105.043 124.54C105.404 124.872 105.596 125.3 105.596 125.799L105.644 133.851L119.432 131.856L119.384 124.516C119.36 119.979 117.798 116.749 114.676 114.753C111.865 112.948 108.142 112.378 103.53 113.043C99.0382 113.708 95.435 115.252 92.6966 117.675C89.5018 120.383 87.9165 123.898 87.9645 128.222L87.9885 138.269C88.0125 142.664 90.1264 146.132 94.282 148.626L102.833 153.115C104.971 154.683 106.052 156.536 106.076 158.697L106.1 163.424C106.076 163.947 105.884 164.398 105.524 164.802C105.163 165.206 104.731 165.443 104.227 165.515C103.698 165.586 103.242 165.467 102.882 165.158C102.497 164.826 102.305 164.422 102.305 163.899L102.257 155.871L88.541 157.842L88.589 165.087C88.6131 169.624 90.1744 172.878 93.2491 174.874C96.0596 176.679 99.7588 177.273 104.371 176.608C108.839 175.966 112.442 174.446 115.156 172.047C118.159 169.386 119.768 165.871 119.96 161.524C119.984 161.191 120.008 160.859 119.984 160.574L119.936 151.738C119.912 147.889 117.798 144.683 113.595 142.094ZM138.36 159.552L150.059 117.271L150.011 107.01L121.714 111.143L121.786 122.711L133.917 120.953L122.074 163.044L122.146 173.401L150.323 169.363L150.251 157.842L138.36 159.552ZM183.76 102.021L169.876 104.04L170.092 154.16C170.092 154.683 169.924 155.158 169.54 155.586C169.155 156.013 168.699 156.251 168.194 156.322C167.69 156.393 167.258 156.274 166.873 155.989C166.513 155.704 166.297 155.301 166.273 154.802L166.249 154.707L166.008 104.587L152.052 106.653L152.317 156.892C152.341 161.215 153.998 164.256 157.289 166.037C160.051 167.652 163.678 168.151 168.194 167.51C172.83 166.845 176.554 165.206 179.34 162.593C182.439 159.719 183.976 155.989 183.952 151.429L183.928 151.381L183.76 102.021ZM200.046 150.74L199.878 99.7411L185.826 101.784L186.066 164.279L209.462 160.954L209.438 149.386L200.046 150.74ZM250.466 92.3537L232.955 94.9191L225.484 117.627L225.436 96.0355L211.36 98.1021L211.528 160.716L225.58 158.721L225.532 136.868L233.099 157.652L250.538 155.111L237.543 125.395L250.466 92.3537ZM282.246 101.071C282.27 100.976 282.27 100.905 282.27 100.857C282.27 96.2731 280.684 92.9951 277.538 90.9998C274.679 89.1708 270.908 88.6007 266.2 89.2895C261.612 89.9546 257.937 91.5224 255.126 93.9927C251.811 96.7244 250.154 100.287 250.154 104.658L250.202 142.877C250.202 147.224 251.883 150.289 255.198 152.07C257.985 153.709 261.66 154.184 266.224 153.543C270.908 152.878 274.679 151.215 277.514 148.578C280.66 145.68 282.222 141.927 282.222 137.343L282.198 137.295V101.071H282.246ZM267.665 141.571C267.281 141.999 266.824 142.236 266.296 142.331C265.791 142.402 265.335 142.284 264.975 141.975C264.59 141.69 264.398 141.286 264.374 140.787L264.35 140.692L264.326 102.782L264.35 102.687C264.374 102.164 264.566 101.713 264.951 101.309C265.335 100.905 265.767 100.644 266.272 100.572C266.8 100.501 267.257 100.62 267.641 100.929C268.025 101.261 268.194 101.689 268.194 102.211L268.218 140.17C268.218 140.668 268.049 141.143 267.665 141.571Z" fill="black"/>
<path fill-rule="evenodd" clip-rule="evenodd" d="M146.888 278.89C145.398 278.771 143.909 278.629 142.42 278.51C129.208 277.512 116.429 274.638 104.251 269.531C69.8526 255.089 45.9758 230.528 32.6442 196.014C32.4761 195.587 32.356 195.159 32.1878 194.731C33.0045 194.351 126.566 180.812 127.887 180.883C127.887 185.444 127.887 190.028 127.887 194.708C125.413 195.064 122.915 195.444 120.297 195.824C120.369 208.01 120.441 220.1 120.513 232.31C116.717 232.856 112.994 233.402 109.103 233.972C109.007 221.763 108.911 209.672 108.815 197.439C90.4626 200.052 72.2787 202.618 54.0468 205.207C72.3027 239.887 113.931 267.94 164.063 262.809C216.38 257.465 253.781 217.891 262.116 174.85C244.413 177.415 226.757 179.957 208.934 182.522C211.264 194.494 213.57 206.394 215.924 218.39C211.432 219.055 207.132 219.673 202.712 220.314C202.52 218.509 202.328 216.822 202.136 214.993C201.319 215.088 200.574 215.183 199.83 215.278C199.061 215.373 198.317 215.492 197.452 215.635C197.236 217.44 197.043 219.245 196.827 221.169C192.503 221.81 188.204 222.428 183.88 223.069C183.712 222.167 193.104 173.401 193.873 171.049C195.938 170.74 198.052 170.432 200.166 170.123C209.486 168.769 218.782 167.439 228.102 166.085C237.11 164.778 246.118 163.448 255.126 162.189C262.909 161.096 270.716 160.051 278.522 159.006C278.907 158.959 279.291 158.982 279.675 158.959C279.675 160.479 279.675 161.999 279.675 163.519C279.579 164.422 279.507 165.325 279.411 166.227C278.859 171.049 278.09 175.847 276.985 180.598C267.809 220.694 239.32 253.997 200.887 269.555C188.612 274.52 175.857 277.536 162.621 278.534C161.132 278.653 159.643 278.795 158.154 278.914C154.43 278.89 150.659 278.89 146.888 278.89ZM200.094 192.641C200.022 192.641 199.926 192.641 199.854 192.617C199.349 197.487 198.845 202.333 198.317 207.345C199.445 207.178 200.358 207.06 201.439 206.917C200.983 202.095 200.526 197.368 200.094 192.641Z" fill="black"/>
<path fill-rule="evenodd" clip-rule="evenodd" d="M156.568 26.4615C158.178 26.5803 159.763 26.7465 161.372 26.8416C178.331 27.9817 194.449 32.2811 209.63 39.8585C229.976 50.0012 246.43 64.4909 259.065 83.2562C259.306 83.6125 259.522 83.9688 259.738 84.3251C259.786 84.3964 259.762 84.4676 259.834 84.7052C254.141 85.5365 248.472 86.3679 242.779 87.1993C229.808 70.073 213.378 57.5074 193.224 49.5737C192.816 50.2625 192.455 50.8326 192.119 51.4265C190.51 54.2294 188.876 57.0323 187.291 59.859C182.871 67.7926 177.178 74.7287 170.356 80.7383C167.113 83.5887 163.822 86.4154 160.508 89.1708C157.481 91.6887 154.07 93.4464 150.131 94.0878C144.221 95.0617 138.745 94.1353 133.868 90.501C130.962 88.3157 128.007 86.2016 125.125 83.9925C118.399 78.8855 112.874 72.7334 108.646 65.441C106.701 62.0918 104.611 58.7901 102.617 55.4646C102.353 55.0132 102.113 54.5382 101.824 53.9918C89.0213 60.4766 77.9236 69.0041 68.4834 79.6219C59.0191 90.2397 51.9089 102.235 47.0327 115.632C41.3877 116.464 35.7428 117.271 29.8817 118.126C30.0018 117.604 30.0739 117.176 30.194 116.772C34.2295 103.328 40.3068 90.8336 48.6421 79.4794C67.5225 53.7543 92.6004 37.1268 123.9 29.7157C131.466 27.9342 139.153 26.9603 146.936 26.6278C147.464 26.604 147.993 26.509 148.521 26.4377C151.187 26.4615 153.878 26.4615 156.568 26.4615ZM179.436 45.2268C157.865 40.1673 136.703 41.0937 115.877 48.101C115.829 48.3385 115.805 48.4098 115.805 48.481C115.829 48.6948 115.877 48.9323 115.925 49.1461C117.582 56.581 121.209 62.9469 126.614 68.3627C131.586 73.3272 137.423 77.1278 143.597 80.4058C145.975 81.6647 148.569 81.4984 150.755 80.1207C156.4 76.5339 161.637 72.4483 166.321 67.6739C172.038 61.8543 176.409 55.2508 178.812 47.4359C179.028 46.7233 179.196 46.0344 179.436 45.2268Z" fill="black"/>
<path fill-rule="evenodd" clip-rule="evenodd" d="M161.853 209.696C161.853 215.16 161.853 220.623 161.853 226.252C158.105 226.799 154.382 227.345 150.467 227.915C150.371 211.003 150.299 194.28 150.203 177.439C154.022 176.869 157.769 176.322 161.66 175.752C161.66 181.358 161.66 186.798 161.66 192.237C161.757 192.261 161.853 192.261 161.949 192.285C163.846 186.489 165.744 180.717 167.666 174.873C172.35 174.185 176.962 173.496 181.838 172.783C178.355 181.786 174.92 190.575 171.509 199.411C175.016 207.321 178.499 215.231 182.078 223.307C177.322 223.996 172.662 224.685 167.954 225.374C165.984 220.053 164.063 214.827 162.141 209.625C162.021 209.649 161.925 209.672 161.853 209.696Z" fill="black"/>
<path fill-rule="evenodd" clip-rule="evenodd" d="M129.857 230.932C129.737 213.996 129.641 197.297 129.521 180.479C135.886 179.553 142.132 178.627 148.497 177.7C148.497 180.883 148.497 183.947 148.497 187.107C146.071 187.463 143.645 187.843 141.267 188.199C140.978 189.007 140.978 197.819 141.267 199.316C143.14 199.055 145.014 198.793 147.032 198.508C147.032 201.668 147.032 204.708 147.032 207.867C145.134 208.152 143.212 208.461 141.219 208.746C141.219 212.428 141.219 216.038 141.219 219.863C143.741 219.506 146.191 219.174 148.737 218.818C148.737 221.977 148.737 224.994 148.737 228.176C142.516 229.103 136.27 230.006 129.857 230.932Z" fill="black"/>
</svg>
