<svg width="688" height="688" viewBox="0 0 688 688" fill="none" xmlns="http://www.w3.org/2000/svg">
<g opacity="0.03">
<path fill-rule="evenodd" clip-rule="evenodd" d="M124.302 274.585L85.4678 280.249L69.2687 331.11L68.7778 282.676L37.5249 287.26L38.9975 427.6L70.1959 423.177L69.705 374.15L86.8859 420.804L125.611 415.303L96.2127 348.639L124.302 274.585ZM194.989 294.272C195.044 294.056 195.044 293.894 195.044 293.786C194.989 283.539 191.389 276.15 184.408 271.673C178.027 267.574 169.627 266.279 159.209 267.79C149.064 269.3 140.883 272.752 134.72 278.253C127.411 284.402 123.811 292.33 123.866 302.146L124.629 387.796C124.738 397.558 128.447 404.408 135.92 408.453C142.138 412.121 150.319 413.253 160.409 411.797C170.827 410.341 179.117 406.619 185.39 400.686C192.317 394.214 195.753 385.8 195.644 375.499L195.589 375.391L194.989 294.272ZM163.355 384.991C162.482 385.962 161.5 386.501 160.355 386.663C159.209 386.825 158.228 386.555 157.409 385.908C156.591 385.261 156.1 384.344 156.046 383.265L155.991 383.049L155.282 298.047L155.337 297.832C155.391 296.699 155.828 295.62 156.646 294.703C157.464 293.786 158.446 293.247 159.591 293.085C160.737 292.923 161.773 293.193 162.646 293.894C163.464 294.649 163.9 295.62 163.9 296.753L164.609 381.809C164.609 382.942 164.173 384.02 163.355 384.991ZM257.931 322.642L241.95 313.365C234.86 308.457 231.315 303.063 231.26 297.13L231.206 286.721C231.26 285.588 231.696 284.51 232.515 283.593C233.333 282.676 234.314 282.136 235.46 281.975C236.66 281.813 237.696 282.082 238.514 282.784C239.332 283.539 239.769 284.51 239.769 285.642L239.878 303.926L271.185 299.396L271.076 282.73C271.022 272.428 267.476 265.093 260.386 260.562C254.004 256.463 245.55 255.169 235.078 256.679C224.879 258.189 216.697 261.695 210.479 267.196C203.225 273.345 199.625 281.327 199.735 291.144L199.789 313.958C199.844 323.936 204.643 331.811 214.079 337.474L233.496 347.668C238.351 351.228 240.805 355.435 240.86 360.343L240.914 371.076C240.86 372.262 240.423 373.287 239.605 374.204C238.787 375.121 237.805 375.66 236.66 375.822C235.46 375.984 234.424 375.714 233.605 375.013C232.733 374.258 232.296 373.341 232.296 372.155L232.187 353.924L201.044 358.401L201.153 374.851C201.207 385.153 204.752 392.542 211.734 397.073C218.115 401.172 226.515 402.52 236.987 401.01C247.132 399.554 255.313 396.102 261.477 390.654C268.294 384.614 271.949 376.631 272.385 366.761C272.44 366.006 272.494 365.251 272.44 364.604L272.331 344.54C272.276 335.802 267.476 328.521 257.931 322.642ZM314.165 362.284L340.727 266.279L340.618 242.979L276.367 252.364L276.53 278.631L304.074 274.639L277.185 370.213L277.349 393.729L341.327 384.56L341.163 358.401L314.165 362.284ZM417.25 231.653L385.725 236.237L386.216 350.041C386.216 351.228 385.834 352.306 384.961 353.277C384.088 354.248 383.052 354.787 381.907 354.949C380.761 355.111 379.78 354.841 378.907 354.194C378.089 353.547 377.598 352.63 377.543 351.497L377.489 351.282L376.943 237.478L345.254 242.17L345.854 356.244C345.909 366.06 349.672 372.964 357.144 377.009C363.417 380.676 371.653 381.809 381.907 380.353C392.433 378.843 400.887 375.121 407.214 369.188C414.25 362.662 417.741 354.194 417.687 343.838L417.632 343.731L417.25 231.653ZM454.23 342.274L453.848 226.475L421.941 231.113L422.486 373.018L475.611 365.467L475.556 339.2L454.23 342.274ZM568.715 209.701L528.953 215.526L511.991 267.088L511.882 218.061L479.92 222.753L480.301 364.927L512.209 360.397L512.1 310.776L529.281 357.97L568.879 352.198L539.371 284.725L568.715 209.701ZM640.875 229.495C640.929 229.28 640.929 229.118 640.929 229.01C640.929 218.6 637.329 211.157 630.184 206.627C623.694 202.474 615.131 201.179 604.44 202.743C594.023 204.254 585.678 207.813 579.296 213.423C571.769 219.625 568.006 227.716 568.006 237.64L568.115 324.422C568.115 334.292 571.933 341.25 579.46 345.295C585.787 349.016 594.132 350.095 604.495 348.639C615.131 347.129 623.694 343.353 630.13 337.366C637.275 330.786 640.82 322.264 640.82 311.855L640.766 311.747V229.495H640.875ZM607.767 321.455C606.895 322.426 605.858 322.965 604.658 323.181C603.513 323.343 602.477 323.073 601.659 322.372C600.786 321.725 600.35 320.808 600.295 319.675L600.241 319.46L600.186 233.379L600.241 233.163C600.295 231.976 600.731 230.952 601.604 230.035C602.477 229.118 603.459 228.525 604.604 228.363C605.804 228.201 606.84 228.471 607.713 229.172C608.586 229.927 608.967 230.898 608.967 232.084L609.022 318.273C609.022 319.406 608.64 320.484 607.767 321.455Z" fill="#202020"/>
<path fill-rule="evenodd" clip-rule="evenodd" d="M333.527 633.255C330.146 632.986 326.764 632.662 323.382 632.392C293.384 630.127 264.367 623.601 236.714 612.005C158.609 579.212 104.394 523.443 74.1229 445.075C73.7411 444.104 73.4683 443.133 73.0865 442.162C74.941 441.299 287.384 410.556 290.384 410.718C290.384 421.074 290.384 431.483 290.384 442.108C284.766 442.917 279.094 443.78 273.149 444.643C273.312 472.312 273.476 499.765 273.64 527.488C265.022 528.729 256.568 529.969 247.732 531.264C247.514 503.541 247.296 476.088 247.077 448.311C205.407 454.244 164.118 460.069 122.72 465.948C164.173 544.693 258.695 608.391 372.525 596.741C491.319 584.606 576.242 494.749 595.168 397.018C554.97 402.843 514.881 408.614 474.411 414.439C479.701 441.623 484.937 468.645 490.283 495.882C480.083 497.392 470.32 498.794 460.284 500.251C459.848 496.152 459.412 492.322 458.975 488.169C457.121 488.385 455.43 488.601 453.739 488.816C451.994 489.032 450.303 489.302 448.339 489.625C447.849 493.724 447.412 497.824 446.921 502.192C437.104 503.649 427.341 505.051 417.523 506.507C417.141 504.458 438.467 393.728 440.213 388.389C444.903 387.687 449.703 386.986 454.503 386.285C475.665 383.211 496.773 380.19 517.936 377.116C538.389 374.15 558.843 371.129 579.296 368.271C596.968 365.79 614.694 363.417 632.421 361.043C633.293 360.936 634.166 360.989 635.039 360.936C635.039 364.387 635.039 367.839 635.039 371.291C634.82 373.341 634.657 375.39 634.439 377.44C633.184 388.389 631.439 399.284 628.93 410.071C608.095 501.114 543.407 576.731 456.139 612.059C428.268 623.331 399.306 630.181 369.253 632.446C365.871 632.716 362.489 633.04 359.108 633.309C350.654 633.255 342.09 633.255 333.527 633.255ZM454.339 437.416C454.175 437.416 453.957 437.416 453.794 437.362C452.648 448.419 451.503 459.422 450.303 470.802C452.866 470.424 454.939 470.155 457.393 469.831C456.357 458.882 455.321 448.149 454.339 437.416Z" fill="#202020"/>
<path fill-rule="evenodd" clip-rule="evenodd" d="M355.508 60.0832C359.162 60.3529 362.762 60.7305 366.416 60.9462C404.923 63.5351 441.521 73.2974 475.992 90.5028C522.19 113.533 559.552 146.434 588.241 189.043C588.786 189.852 589.277 190.661 589.768 191.47C589.877 191.632 589.823 191.794 589.986 192.333C577.06 194.221 564.188 196.108 551.261 197.996C521.808 159.109 484.501 130.577 438.74 112.562C437.813 114.127 436.994 115.421 436.231 116.769C432.576 123.134 428.868 129.498 425.268 135.916C415.232 153.931 402.305 169.68 386.815 183.326C379.452 189.798 371.98 196.216 364.453 202.473C357.58 208.19 349.835 212.181 340.89 213.637C327.473 215.849 315.037 213.745 303.965 205.493C297.365 200.531 290.657 195.731 284.112 190.715C268.84 179.119 256.295 165.149 246.695 148.591C242.277 140.986 237.532 133.489 233.005 125.938C232.405 124.914 231.86 123.835 231.205 122.594C202.134 137.319 176.935 156.682 155.5 180.791C134.01 204.9 117.866 232.137 106.794 262.557C93.9761 264.445 81.1586 266.278 67.8502 268.22C68.1229 267.033 68.2866 266.063 68.5593 265.146C77.7224 234.618 91.5217 206.248 110.448 180.467C153.318 122.055 210.261 84.3002 281.33 67.4724C298.511 63.4272 315.964 61.2159 333.636 60.4608C334.836 60.4068 336.036 60.1911 337.236 60.0293C343.29 60.0832 349.399 60.0832 355.508 60.0832ZM407.432 102.692C358.453 91.204 310.401 93.3074 263.113 109.218C263.004 109.758 262.949 109.92 262.949 110.081C263.004 110.567 263.113 111.106 263.222 111.592C266.985 128.473 275.221 142.928 287.493 155.225C298.783 166.498 312.037 175.127 326.055 182.571C331.454 185.429 337.345 185.052 342.308 181.923C355.126 173.779 367.016 164.502 377.652 153.661C390.633 140.447 400.56 125.453 406.014 107.708C406.505 106.09 406.887 104.526 407.432 102.692Z" fill="#202020"/>
<path fill-rule="evenodd" clip-rule="evenodd" d="M367.507 476.141C367.507 488.546 367.507 500.951 367.507 513.734C358.998 514.974 350.544 516.215 341.654 517.509C341.436 479.107 341.272 441.136 341.054 402.896C349.726 401.602 358.235 400.361 367.071 399.067C367.071 411.795 367.071 424.147 367.071 436.498C367.289 436.552 367.507 436.552 367.725 436.606C372.034 423.446 376.343 410.339 380.706 397.071C391.342 395.507 401.814 393.943 412.886 392.325C404.978 412.766 397.178 432.722 389.433 452.786C397.396 470.747 405.305 488.708 413.432 507.046C402.632 508.61 392.051 510.174 381.361 511.738C376.888 499.657 372.525 487.791 368.161 475.979C367.889 476.033 367.671 476.087 367.507 476.141Z" fill="#202020"/>
<path fill-rule="evenodd" clip-rule="evenodd" d="M294.856 524.359C294.584 485.903 294.365 447.986 294.093 409.8C308.547 407.697 322.728 405.593 337.182 403.49C337.182 410.717 337.182 417.675 337.182 424.848C331.673 425.657 326.164 426.52 320.764 427.329C320.11 429.163 320.11 449.173 320.764 452.571C325.018 451.978 329.273 451.384 333.854 450.737C333.854 457.911 333.854 464.814 333.854 471.988C329.546 472.635 325.182 473.336 320.655 473.983C320.655 482.343 320.655 490.542 320.655 499.225C326.382 498.416 331.945 497.661 337.727 496.852C337.727 504.025 337.727 510.875 337.727 518.103C323.6 520.206 309.419 522.256 294.856 524.359Z" fill="#202020"/>
</g>
</svg>
