<svg width="249" height="45" viewBox="0 0 249 45" fill="none" xmlns="http://www.w3.org/2000/svg">
<path fill-rule="evenodd" clip-rule="evenodd" d="M183.625 28.9426C183.803 28.5425 183.892 28.3202 183.981 28.0535C185.092 24.6305 186.204 21.2074 187.315 17.7844C187.404 17.5177 187.493 17.2509 187.582 16.9842C187.982 15.9173 188.471 15.5616 189.627 15.5616C189.849 15.5616 190.116 15.5616 190.338 15.5616C191.761 15.6506 192.516 16.673 192.072 18.0067C191.583 19.5181 191.049 20.9852 190.56 22.4966C189.316 26.0975 188.071 29.7428 186.826 33.3436C186.248 35.0774 185.937 35.2996 184.07 35.2996C183.581 35.2996 183.136 35.2996 182.647 35.2996C181.847 35.2552 181.314 34.8995 181.003 34.1438C180.869 33.8771 180.78 33.5659 180.691 33.2547C179.58 30.0984 178.469 26.8977 177.357 23.7414C177.268 23.5191 177.179 23.3413 177.002 22.9856C176.824 23.4302 176.735 23.7414 176.601 24.0081C175.49 27.1644 174.423 30.3651 173.312 33.5214C173.223 33.7437 173.178 33.966 173.045 34.1883C172.734 34.8551 172.2 35.2552 171.489 35.2552C170.689 35.2996 169.889 35.2996 169.133 35.2552C168.377 35.2107 167.888 34.8106 167.577 34.1438C167.444 33.8771 167.399 33.6104 167.31 33.3436C165.621 28.4091 163.932 23.4746 162.198 18.5401C162.109 18.2289 161.976 17.9622 161.931 17.651C161.709 16.5841 162.42 15.6505 163.487 15.5172C164.021 15.4727 164.599 15.4727 165.132 15.5172C165.843 15.5616 166.332 15.9173 166.599 16.5397C166.732 16.8064 166.821 17.1176 166.91 17.4288C168.066 20.9407 169.178 24.4082 170.289 27.9201C170.378 28.1868 170.467 28.4091 170.556 28.6759C170.956 28.5425 170.911 28.2313 171 27.9646C172.245 24.4526 173.445 20.9407 174.645 17.4288C175.268 15.695 175.712 15.3838 177.535 15.4727C178.424 15.5172 179.002 15.9173 179.358 16.7619C179.536 17.2509 179.713 17.7399 179.891 18.2289C181.047 21.5186 182.158 24.8083 183.314 28.0535C183.359 28.3647 183.448 28.5869 183.625 28.9426Z" fill="black"/>
<path fill-rule="evenodd" clip-rule="evenodd" d="M43.9479 15.9173C43.9479 15.5172 43.9479 15.1171 43.9479 14.717C43.9479 12.2275 43.9923 9.73803 43.9479 7.24855C43.9034 5.38144 44.7925 4.62572 46.5263 4.75908C46.793 4.75908 47.1042 4.75907 47.3709 4.84798C48.1711 5.0258 48.6601 5.60372 48.749 6.40391C48.7935 6.71509 48.7935 7.02628 48.7935 7.33747C48.7935 16.0062 48.7935 24.6304 48.7935 33.2992C48.7935 33.6548 48.7935 34.0104 48.749 34.3661C48.7046 34.8995 48.3489 35.2552 47.8155 35.2996C46.8819 35.3441 45.9039 35.3441 44.9703 35.2996C44.4369 35.2552 44.1257 34.8551 44.0368 34.3661C43.9923 34.0549 43.9923 33.7437 43.9923 33.4325C43.9923 33.0769 43.9923 32.7212 43.9479 32.3656C43.9479 32.2322 43.8145 32.0544 43.6811 32.0544C43.5478 32.01 43.37 32.0989 43.281 32.1878C43.1477 32.2767 43.1032 32.4101 43.0143 32.5434C42.8365 32.8102 42.7031 33.0769 42.5253 33.3436C41.4584 35.2996 39.8136 36.0109 37.6797 35.7442C33.0564 35.1663 29.8112 31.7877 29.3222 26.9866C29.1444 25.2084 29.3222 23.4302 30.0335 21.7409C31.5005 18.0956 34.1678 15.9617 38.0354 15.3394C39.7691 15.0726 41.5029 15.206 43.1477 15.7839C43.3255 15.8284 43.5033 15.9173 43.7256 15.9617C43.6811 16.0062 43.7256 15.9617 43.9479 15.9173ZM43.9479 25.4751C43.9479 24.2303 43.9479 22.9412 43.9479 21.6964C43.9479 20.6295 43.5478 20.096 42.5253 19.7849C41.5473 19.4737 40.5248 19.3403 39.5024 19.3848C37.1018 19.5181 35.2347 20.8962 34.479 23.2079C33.9455 24.8083 33.9455 26.3642 34.4345 27.9646C35.2347 30.454 37.3241 31.8766 40.0358 31.7432C40.9249 31.6988 41.7251 31.4765 42.5698 31.1209C43.5478 30.7208 43.9923 30.0984 43.9479 29.0315C43.9034 27.8312 43.9479 26.6309 43.9479 25.4751Z" fill="black"/>
<path fill-rule="evenodd" clip-rule="evenodd" d="M57.24 15.8728C57.7734 15.695 58.0846 15.5616 58.4403 15.4727C62.4412 14.4058 66.0421 15.0726 69.065 18.0511C70.7543 19.696 71.5989 21.7409 71.9101 24.0525C72.1324 25.7863 72.0435 27.52 71.4656 29.2093C70.3097 32.6768 67.3313 35.3441 63.0191 35.5664C61.1965 35.6553 59.8184 34.944 58.8848 33.3436C58.6181 32.8991 58.3958 32.4545 58.0846 32.01C57.9957 31.8766 57.7734 31.7877 57.5956 31.8322C57.3733 31.8322 57.2844 32.0544 57.2844 32.2767C57.2844 32.8102 57.2844 33.2992 57.24 33.8326C57.1955 34.7217 56.7954 35.1218 55.9063 35.1663C55.1506 35.2107 54.3949 35.2107 53.6391 35.1663C52.8834 35.1218 52.4833 34.7662 52.4388 33.966C52.4388 33.6993 52.4388 33.4325 52.4388 33.1213C52.4388 24.4526 52.4388 15.8284 52.4388 7.15965C52.4388 6.89292 52.4388 6.62619 52.4388 6.31501C52.5278 5.337 53.1057 4.71462 54.0837 4.58125C54.5727 4.5368 55.1061 4.5368 55.6396 4.58125C56.6176 4.71462 57.1955 5.337 57.24 6.31501C57.24 6.58174 57.24 6.84847 57.24 7.15965C57.24 9.60467 57.24 12.0497 57.24 14.4947C57.24 14.8948 57.24 15.2949 57.24 15.8728ZM57.24 25.1195C57.24 26.3642 57.24 27.6534 57.24 28.8981C57.24 29.7872 57.6401 30.4096 58.4403 30.7652C59.3738 31.2098 60.3963 31.4765 61.4187 31.4765C64.3972 31.521 66.131 29.7872 66.7978 27.6534C67.2868 26.053 67.2868 24.4526 66.7533 22.8967C65.9532 20.585 64.1305 19.2069 61.6855 19.118C60.7519 19.0736 59.7739 19.1625 58.8848 19.4292C57.6845 19.7849 57.2844 20.3183 57.24 21.5631C57.24 22.7633 57.24 23.9636 57.24 25.1195Z" fill="black"/>
<path fill-rule="evenodd" clip-rule="evenodd" d="M225.769 16.6286C226.124 16.4507 226.48 16.2729 226.836 16.0951C228.658 15.206 230.614 14.9393 232.615 15.3394C236.349 16.0507 238.705 18.3179 239.861 21.8743C240.617 24.1415 240.617 26.4976 239.905 28.7648C238.75 32.499 236.171 34.7217 232.392 35.5664C230.392 36.0109 228.392 35.8776 226.436 35.1663C226.258 35.1218 226.08 35.0774 225.858 35.0329C225.813 35.0329 225.769 35.0329 225.635 35.0774C225.635 35.433 225.591 35.8331 225.591 36.2332C225.591 38.0559 225.591 39.8785 225.591 41.7012C225.591 42.0123 225.591 42.3235 225.546 42.6347C225.413 43.5238 224.791 44.1462 223.902 44.2351C223.413 44.2796 222.968 44.2796 222.479 44.2351C221.501 44.1462 220.879 43.5683 220.745 42.5903C220.701 42.3235 220.701 42.0568 220.701 41.7456C220.701 33.6548 220.701 25.564 220.701 17.4732C220.701 15.9173 220.968 15.6506 222.479 15.6506C223.012 15.6506 223.59 15.6506 224.124 15.6506C224.746 15.6506 225.191 15.8284 225.457 16.4063C225.546 16.4507 225.68 16.5397 225.769 16.6286ZM225.68 33.6993C226.391 33.3436 226.702 32.8991 227.102 32.499C227.636 31.9655 228.258 31.6988 229.014 31.7433C229.37 31.7433 229.725 31.7877 230.081 31.7433C232.304 31.5654 234.037 30.5874 234.926 28.498C235.86 26.3642 235.727 24.1859 234.66 22.0965C233.948 20.7629 232.881 19.8738 231.414 19.5181C229.325 18.9847 227.458 19.4737 225.68 20.7629C225.68 21.2074 225.635 21.652 225.635 22.0521C225.635 24.7194 225.635 27.4311 225.591 30.0984C225.591 30.9875 225.546 31.9211 225.546 32.8102C225.546 33.0769 225.635 33.2992 225.68 33.6993Z" fill="black"/>
<path fill-rule="evenodd" clip-rule="evenodd" d="M126.056 23.9192C126.501 23.8302 126.679 23.4302 126.945 23.1634C128.857 21.1185 130.768 19.0291 132.636 16.9842C132.813 16.8064 132.991 16.6285 133.125 16.4507C133.614 15.8284 134.191 15.5616 134.992 15.6505C135.658 15.695 136.325 15.6505 136.992 15.6505C137.481 15.6505 137.837 15.8284 138.059 16.2729C138.281 16.7619 138.148 17.2065 137.792 17.5621C137.125 18.2734 136.459 19.0291 135.792 19.7404C134.547 21.074 133.302 22.4077 132.058 23.7413C131.835 23.9636 131.658 24.2303 131.435 24.4971C131.702 24.8527 131.924 25.1639 132.191 25.4751C134.147 27.8312 136.103 30.2318 138.104 32.5879C138.326 32.8546 138.593 33.1213 138.77 33.4325C139.304 34.2772 138.815 35.2552 137.837 35.3441C136.992 35.3885 136.103 35.3441 135.214 35.3441C134.769 35.3441 134.369 35.1218 134.058 34.8106C133.791 34.5439 133.614 34.2772 133.347 34.0104C131.213 31.3876 129.079 28.7203 126.901 26.0975C126.679 25.7863 126.456 25.4306 126.101 25.2528C125.789 25.6084 125.923 25.9641 125.923 26.3197C125.923 28.4536 125.923 30.5874 125.923 32.7212C125.923 33.0769 125.923 33.4325 125.878 33.7882C125.789 34.6773 125.167 35.2996 124.234 35.3885C123.745 35.433 123.3 35.433 122.811 35.3885C121.877 35.2996 121.211 34.6773 121.077 33.7437C121.033 33.477 121.077 33.2103 121.077 32.8991C121.077 24.3637 121.077 15.8284 121.077 7.293C121.077 7.07073 121.077 6.80399 121.077 6.58172C121.166 5.60371 121.789 4.93689 122.722 4.84798C123.211 4.80352 123.745 4.80352 124.278 4.84798C125.212 4.93689 125.789 5.55926 125.878 6.49282C125.923 6.89291 125.923 7.293 125.923 7.69309C125.923 12.7165 125.923 17.7399 125.923 22.7633C125.878 23.0745 125.789 23.5191 126.056 23.9192Z" fill="black"/>
<path fill-rule="evenodd" clip-rule="evenodd" d="M149.751 15.1171C152.285 15.1171 154.285 15.6506 156.108 16.8508C159.397 19.0291 160.953 22.1854 160.776 26.0975C160.553 30.8542 156.997 34.8106 152.062 35.6108C149.751 36.0109 147.483 35.7442 145.35 34.7662C141.438 32.988 139.082 29.076 139.393 24.7194C139.748 20.0961 142.727 16.8508 146.594 15.6506C147.706 15.2949 148.906 15.1171 149.751 15.1171ZM156.019 25.5196C155.885 24.8083 155.841 24.097 155.619 23.4302C154.863 21.0296 152.729 19.4737 150.195 19.3848C147.661 19.2959 145.394 20.8073 144.549 23.2523C144.194 24.3193 144.105 25.3862 144.283 26.542C144.772 29.9206 147.973 32.1434 151.262 31.4321C154.063 30.8097 155.93 28.498 156.019 25.5196Z" fill="black"/>
<path fill-rule="evenodd" clip-rule="evenodd" d="M16.4303 35.8331C15.0077 35.7886 13.6741 35.5219 12.3849 35.0329C8.29504 33.4325 5.67219 29.7428 5.7611 25.1639C5.89447 20.4072 8.87295 16.9397 12.8739 15.695C16.697 14.4947 20.3423 14.9837 23.4986 17.5621C26.2993 19.8293 27.4551 22.8967 27.1439 26.4976C26.7883 30.9431 23.3653 34.8551 18.4308 35.6108C17.7639 35.6997 17.0971 35.7442 16.4303 35.8331ZM22.4317 25.4751C22.2984 24.8083 22.2539 24.0525 22.0316 23.3857C21.187 20.7184 18.8309 19.3848 16.4748 19.3848C13.9408 19.3848 11.7181 20.9407 10.9179 23.3857C10.6067 24.3637 10.5622 25.3417 10.6511 26.3197C10.9179 29.076 13.0962 31.2542 15.8079 31.521C18.653 31.7877 21.187 30.1873 22.0316 27.4756C22.2539 26.8532 22.2984 26.1864 22.4317 25.4751Z" fill="black"/>
<path fill-rule="evenodd" clip-rule="evenodd" d="M98.7164 27.9646C98.7164 29.6539 98.7164 31.3432 98.7164 33.0769C98.7164 33.3436 98.7164 33.6548 98.672 33.9215C98.5386 34.8106 97.8273 35.433 96.9382 35.3886C96.0936 35.3441 95.4712 34.7662 95.3823 33.8771C95.3379 33.3881 95.3379 32.8546 95.2489 32.3212C95.2489 32.1878 95.0711 31.9655 94.9822 31.9655C94.8044 31.9655 94.5821 32.0544 94.4932 32.1878C94.182 32.5879 93.9598 33.0324 93.693 33.477C92.9373 34.7662 91.8704 35.5219 90.3589 35.6997C88.9363 35.8776 87.5138 35.8331 86.1357 35.3441C83.8685 34.5439 82.5793 32.8991 82.4015 30.4985C82.2236 28.1424 83.3795 26.2308 85.4244 25.1639C86.5802 24.586 87.7805 24.3193 89.0697 24.2304C90.2255 24.1415 91.3814 24.1414 92.4927 24.3637C92.6261 24.4082 92.8039 24.4082 92.9817 24.4082C93.5152 24.4082 93.8708 24.0525 93.9153 23.5191C94.0931 22.0521 93.2485 20.674 91.8259 20.185C90.6256 19.7849 89.3809 19.8293 88.1806 20.0071C87.4249 20.1405 86.6691 20.4072 85.9134 20.6295C85.6911 20.674 85.4689 20.8073 85.2466 20.8518C84.6242 20.9851 84.0907 20.674 84.0463 20.0516C84.0018 19.2959 84.0018 18.5401 84.0463 17.7844C84.0463 17.4732 84.2686 17.2065 84.5798 17.0287C84.8465 16.8953 85.1577 16.7619 85.4244 16.6286C88.0917 15.6505 90.8479 15.4727 93.6041 16.0951C96.8938 16.8508 98.5831 18.9402 98.672 22.3188C98.7609 24.2304 98.7164 26.0975 98.7164 27.9646ZM94.0042 29.2093C94.0042 29.0315 94.0042 28.8092 94.0042 28.5425C93.9598 27.8312 93.7819 27.6089 93.0262 27.4311C92.0037 27.2088 90.9813 27.1644 89.9588 27.2978C89.2475 27.3867 88.5807 27.5645 88.0028 28.009C86.758 28.9426 86.847 30.8097 88.2251 31.5654C88.6252 31.7877 89.1142 31.9211 89.5587 31.9655C90.4034 32.0989 91.2925 32.01 92.1371 31.7432C93.8708 31.2987 94.0931 30.6319 94.0042 29.2093Z" fill="black"/>
<path fill-rule="evenodd" clip-rule="evenodd" d="M202.741 27.6978C202.874 27.4311 203.008 27.1644 203.141 26.8976C204.475 23.8747 205.853 20.8518 207.187 17.7844C207.275 17.6066 207.364 17.4287 207.409 17.2509C208.031 15.6505 208.698 15.3838 210.743 15.6505C211.676 15.7839 212.254 16.8508 212.032 17.7399C211.943 18.0511 211.81 18.3178 211.676 18.629C207.987 26.6309 204.341 34.6328 200.652 42.6347C200.563 42.857 200.474 43.0793 200.34 43.2571C199.585 44.4129 197.229 44.5463 196.384 43.4349C195.984 42.9459 195.939 42.368 196.117 41.7456C196.206 41.4789 196.339 41.2566 196.473 40.9899C197.273 39.345 198.029 37.7002 198.829 36.0554C198.962 35.7886 199.096 35.4775 199.274 35.2107C199.629 34.6328 200.163 34.3216 200.829 34.2772C201.141 34.2327 201.452 34.2327 201.763 34.1883C202.03 34.1438 202.163 33.7437 201.985 33.5214C201.896 33.3881 201.807 33.2547 201.674 33.1658C201.363 32.8546 201.052 32.5434 200.696 32.2767C199.54 31.3876 198.785 30.2318 198.207 28.8981C196.695 25.5195 195.095 22.141 193.539 18.7624C193.405 18.4512 193.272 18.0956 193.139 17.7844C192.828 16.9397 193.45 15.6505 194.65 15.5616C195.139 15.5172 195.673 15.5172 196.206 15.5616C196.917 15.5616 197.406 15.9173 197.718 16.5396C197.851 16.8064 197.984 17.1176 198.118 17.3843C199.496 20.585 200.874 23.7858 202.252 26.9421C202.341 27.2533 202.341 27.5645 202.741 27.6978Z" fill="black"/>
<path fill-rule="evenodd" clip-rule="evenodd" d="M110.453 14.9837C112.053 15.1616 113.609 15.3394 115.12 15.8284C115.431 15.9173 115.743 16.0062 116.009 16.1396C116.898 16.5841 117.299 17.5621 117.032 18.5401C116.765 19.4292 115.92 20.0071 114.942 19.9182C114.676 19.8738 114.409 19.7849 114.142 19.7404C113.075 19.5181 111.964 19.2514 110.897 19.0736C109.964 18.8958 108.986 18.9402 108.096 19.207C107.741 19.2959 107.341 19.4737 107.03 19.696C106.14 20.2739 106.051 21.8298 107.163 22.3632C107.563 22.5411 107.963 22.7189 108.363 22.8078C109.519 23.0745 110.675 23.2523 111.831 23.4746C112.72 23.6524 113.609 23.8747 114.453 24.1859C115.12 24.4082 115.743 24.7638 116.365 25.1639C117.521 25.9197 118.143 27.0755 118.232 28.4536C118.277 29.2093 118.277 29.9651 118.143 30.6763C117.877 32.0989 117.076 33.2103 115.92 34.0549C114.809 34.8551 113.564 35.2996 112.231 35.5664C110.141 35.9665 108.052 35.8331 106.007 35.433C105.118 35.2552 104.229 35.0329 103.384 34.7217C102.451 34.3661 102.006 33.6104 102.051 32.6768C102.095 31.6543 102.94 30.8097 103.962 30.8097C104.407 30.8097 104.807 30.9431 105.207 31.0764C106.896 31.6099 108.585 31.8766 110.364 31.7877C110.986 31.7433 111.608 31.6543 112.186 31.3876C112.72 31.1653 113.12 30.8097 113.253 30.1873C113.475 29.3427 113.209 28.5869 112.453 28.1869C112.053 27.9646 111.564 27.8312 111.119 27.7423C109.919 27.4756 108.719 27.2977 107.519 27.031C106.718 26.8532 105.918 26.6309 105.118 26.3198C104.54 26.0975 103.962 25.7863 103.429 25.4751C102.406 24.8083 101.739 23.8303 101.473 22.63C100.984 20.3183 101.873 17.9622 103.829 16.6286C104.851 15.9173 106.007 15.4727 107.207 15.2949C108.319 15.1171 109.386 15.0726 110.453 14.9837Z" fill="black"/>
<path fill-rule="evenodd" clip-rule="evenodd" d="M74.8441 20.0516C74.8441 15.8728 74.8441 11.6496 74.8441 7.47082C74.8441 7.15964 74.8441 6.84846 74.8441 6.53728C74.933 5.51481 75.5554 4.84799 76.5779 4.75908C77.0669 4.71462 77.5114 4.71462 78.0004 4.75908C78.8895 4.84799 79.5119 5.47035 79.6453 6.35945C79.6897 6.62618 79.6897 6.89292 79.6897 7.2041C79.6897 15.7395 79.6897 24.2748 79.6897 32.8102C79.6897 33.1213 79.6897 33.4325 79.6453 33.7437C79.4674 34.6328 78.8451 35.2107 77.956 35.2996C77.5114 35.3441 77.0669 35.3441 76.6668 35.2996C75.6888 35.2552 75.0219 34.6328 74.8886 33.6993C74.8441 33.3436 74.8441 32.988 74.8441 32.6323C74.8441 28.4536 74.8441 24.2748 74.8441 20.0516Z" fill="black"/>
<path fill-rule="evenodd" clip-rule="evenodd" d="M248.041 20.0071C248.041 24.2304 248.041 28.4536 248.041 32.7213C248.041 33.0769 248.041 33.4325 247.996 33.7882C247.907 34.6328 247.285 35.2552 246.44 35.3441C245.907 35.3886 245.329 35.3886 244.795 35.3441C243.951 35.2552 243.373 34.6328 243.24 33.7882C243.195 33.5215 243.195 33.2547 243.195 32.9435C243.195 24.3637 243.195 15.7839 243.195 7.20412C243.195 7.0263 243.195 6.89293 243.195 6.71511C243.24 5.51483 243.906 4.848 245.107 4.75909C245.551 4.71464 245.996 4.71463 246.396 4.80354C247.285 4.9369 247.863 5.55928 247.952 6.49283C247.996 6.84847 247.952 7.20411 247.952 7.55975C248.041 11.6941 248.041 15.8284 248.041 20.0071Z" fill="black"/>
<path fill-rule="evenodd" clip-rule="evenodd" d="M18.9197 5.20363C18.9197 6.04828 18.9197 6.93737 18.9197 7.78202C18.9197 8.0932 18.9197 8.40439 18.8308 8.71557C18.653 9.60467 17.8973 10.1826 17.0526 10.1381C16.208 10.1381 15.4523 9.51576 15.2744 8.67112C15.23 8.44884 15.23 8.18211 15.23 7.95983C15.23 6.04827 15.23 4.09225 15.23 2.18069C15.23 1.91396 15.23 1.60278 15.3189 1.3805C15.5412 0.53586 16.3414 -0.042057 17.1415 0.00239796C17.9417 0.0468529 18.653 0.624773 18.8308 1.42496C18.9197 1.73615 18.9197 2.04732 18.9197 2.35851C18.9197 3.33652 18.9197 4.27008 18.9197 5.20363Z" fill="black"/>
<path fill-rule="evenodd" clip-rule="evenodd" d="M27.9441 13.0277C26.6105 13.0721 25.3213 11.6496 26.2104 10.3159C26.3437 10.0937 26.566 9.87139 26.7438 9.69357C28.0775 8.35992 29.4111 7.02627 30.7448 5.69262C30.8781 5.55926 30.9671 5.47036 31.1004 5.38145C32.1229 4.5368 33.5454 4.89243 34.0344 6.13717C34.2123 6.58172 34.2123 6.98182 33.99 7.38192C33.8566 7.60419 33.7233 7.87092 33.5454 8.04874C32.0784 9.51576 30.6114 11.0272 29.0999 12.4942C29.011 12.5832 28.8777 12.7165 28.7443 12.8054C28.3887 12.8943 28.0775 12.9832 27.9441 13.0277Z" fill="black"/>
<path fill-rule="evenodd" clip-rule="evenodd" d="M1.67123 4.89246C2.47142 4.89246 2.91597 5.15919 3.31606 5.55928C4.16071 6.40392 5.00535 7.24857 5.80554 8.09322C6.42791 8.71559 7.09474 9.33796 7.71711 10.0492C8.5173 10.9383 8.38393 12.0497 7.45038 12.761C6.87246 13.2055 6.07227 13.25 5.4499 12.8499C5.22763 12.7165 5.00535 12.4943 4.82753 12.3164C3.49388 10.9828 2.16023 9.64914 0.826585 8.31549C0.648765 8.13767 0.470945 7.95985 0.33758 7.78203C-0.0625145 7.20411 -0.10697 6.6262 0.204215 6.00383C0.559855 5.2481 1.09331 4.89246 1.67123 4.89246Z" fill="black"/>
<path fill-rule="evenodd" clip-rule="evenodd" d="M214.833 35.3441C213.144 35.3441 211.721 33.9215 211.721 32.2322C211.721 30.4985 213.143 29.1204 214.922 29.1204C216.255 29.1204 217.945 30.1873 217.989 32.2767C217.989 33.966 216.522 35.3441 214.833 35.3441Z" fill="black"/>
</svg>
