<svg width="220" height="52" viewBox="0 0 220 52" fill="none" xmlns="http://www.w3.org/2000/svg">
<path fill-rule="evenodd" clip-rule="evenodd" d="M93.6388 45.5965C94.3461 45.4333 98.1549 45.4333 99.1887 45.5421C99.2975 45.7598 99.4064 45.923 99.5696 46.195C99.8961 46.7936 100.386 47.1744 100.984 47.3377C102.127 47.7185 103.324 47.773 104.521 47.4465C105.5 47.1744 106.262 46.5215 106.643 45.5965C106.861 45.1068 107.024 44.6171 107.078 44.073C107.133 43.2024 107.133 42.3319 107.133 41.4613C107.133 41.4069 107.078 41.298 107.024 41.1892C106.697 41.1892 106.589 41.4613 106.425 41.6245C105.555 42.5495 104.521 43.2568 103.215 43.5289C101.365 43.9642 99.5152 43.8554 97.7196 43.148C96.2505 42.6039 95.1623 41.5701 94.3461 40.2098C93.6388 38.9584 93.2579 37.5981 93.0403 36.1834C92.7682 34.2246 92.6594 32.2658 93.0403 30.3614C93.2035 29.5997 93.3123 28.7835 93.5844 28.0761C94.4549 25.5188 96.1961 23.8321 98.8078 23.0159C101.311 22.2542 103.868 22.2542 106.371 22.9071C109.853 23.7777 111.594 26.1718 112.139 29.4908C112.247 30.3614 112.302 31.1776 112.302 32.0481C112.302 35.9657 112.302 39.8833 112.302 43.7465C112.302 44.6715 112.247 45.6509 111.975 46.5215C111.486 48.3715 110.397 49.7318 108.711 50.6023C107.35 51.3097 105.881 51.6906 104.358 51.8538C103.161 52.017 101.964 52.017 100.767 51.9082C99.5152 51.745 98.3181 51.4185 97.1755 50.7656C96.0329 50.1126 95.1079 49.1877 94.455 48.045C94.1285 47.4465 93.8564 46.7936 93.5844 46.1406C93.6388 46.0862 93.6932 45.8142 93.6388 45.5965ZM107.133 32.5923C107.133 32.3202 107.078 31.7761 107.024 31.232C106.915 30.3614 106.697 29.4908 106.262 28.7291C105.718 27.7497 104.847 27.1511 103.759 26.9335C103.052 26.7703 102.345 26.8247 101.637 26.9335C100.603 27.1511 99.8416 27.6408 99.2975 28.5114C98.9711 29.0555 98.7534 29.6541 98.5902 30.2526C98.1549 32.1026 98.2093 33.9525 98.6446 35.7481C98.8078 36.3466 99.0255 36.9451 99.4064 37.4893C99.8961 38.1966 100.495 38.6863 101.311 38.9039C101.746 39.0128 102.236 39.1216 102.725 39.1216C104.467 39.1216 105.718 38.3598 106.48 36.7819C106.589 36.5099 106.697 36.2378 106.752 36.0202C107.024 34.9864 107.133 33.9525 107.133 32.5923Z" fill="black"/>
<path fill-rule="evenodd" clip-rule="evenodd" d="M140.596 43.2024C138.746 36.5098 136.95 29.8173 135.1 23.1247C135.046 23.0159 135.1 22.8527 135.1 22.7438C135.971 22.5262 138.528 22.4718 140.106 22.635C140.432 22.9071 140.432 23.2879 140.541 23.6688C140.976 25.3556 141.303 27.0967 141.738 28.8379C142.228 31.0687 142.772 33.2996 143.262 35.5305C143.316 35.8025 143.425 36.0746 143.534 36.4554C143.697 36.1834 143.751 36.0201 143.806 35.9113C144.078 34.7143 144.296 33.5172 144.568 32.3202C145.166 29.382 145.819 26.3894 146.418 23.4512C146.472 23.2335 146.581 22.9615 146.581 22.7438C147.451 22.5262 150.553 22.4718 151.968 22.6894C152.185 22.9615 152.24 23.2879 152.294 23.6144C152.893 26.7703 153.545 29.9261 154.144 33.082C154.362 34.0614 154.525 34.9863 154.688 35.9657C154.688 36.129 154.797 36.2378 154.96 36.5099C155.123 36.0746 155.178 35.8025 155.232 35.476C155.994 32.1026 156.756 28.7835 157.517 25.4644C157.626 25.0291 157.735 24.5938 157.898 24.1585C158.279 23.1791 158.932 22.635 160.02 22.5806C161.163 22.5262 162.36 22.5262 163.503 22.5806C163.666 22.9615 163.557 23.2335 163.448 23.5056C162.904 25.41 162.36 27.3144 161.87 29.2188C160.673 33.5172 159.476 37.7613 158.334 42.0598C158.225 42.4407 158.116 42.7671 158.007 43.148C157.79 43.2024 157.626 43.3112 157.463 43.3112C155.885 43.3112 154.307 43.3112 152.838 43.3112C152.457 42.9848 152.457 42.6039 152.403 42.223C151.968 40.3186 151.587 38.4142 151.206 36.5099C150.716 34.2246 150.226 31.8849 149.737 29.5996C149.682 29.4364 149.737 29.2188 149.519 29.1099C149.465 29.1099 149.465 29.1099 149.465 29.1099L149.41 29.1644C149.356 29.2188 149.356 29.3276 149.356 29.4364C148.322 34.0069 147.343 38.5231 146.309 43.0936C146.091 43.148 145.873 43.2024 145.656 43.2024C144.187 43.2024 142.718 43.2024 141.249 43.2024C140.922 43.3112 140.813 43.2568 140.596 43.2024Z" fill="black"/>
<path fill-rule="evenodd" clip-rule="evenodd" d="M198.217 41.026C197.945 41.298 198.054 41.6789 198.054 41.951C198.054 43.6377 198.054 45.3789 198.054 47.0656C198.054 47.6641 198.054 48.2627 198.054 48.8612C198.054 49.1333 198.054 49.4053 197.999 49.7318C197.782 50.7656 197.183 51.3097 196.149 51.4729C195.388 51.5817 194.136 51.5273 193.048 51.4185C192.83 51.2009 192.885 50.8744 192.885 50.6023C192.885 49.0244 192.885 47.4465 192.885 45.8686C192.885 41.2981 192.885 36.6731 192.885 32.1026C192.885 30.6879 193.048 29.3276 193.483 28.0217C194.354 25.3012 196.149 23.6144 198.924 22.9071C201.373 22.2542 203.821 22.2542 206.27 22.9071C208.609 23.56 210.296 25.0291 211.276 27.26C211.711 28.2938 212.037 29.382 212.146 30.5246C212.364 32.8099 212.364 35.0408 211.82 37.2716C211.656 37.979 211.384 38.7407 211.112 39.3937C210.024 41.8966 208.065 43.2569 205.399 43.6921C204.529 43.8554 203.712 43.8554 202.842 43.7465C201.318 43.5289 200.013 42.876 198.979 41.7878C198.707 41.4613 198.598 41.1348 198.217 41.026ZM206.923 32.7011C206.923 32.3746 206.923 32.0481 206.868 31.7761C206.76 30.7967 206.596 29.8717 206.161 28.9467C205.617 27.9129 204.855 27.2056 203.712 26.9335C202.787 26.7159 201.917 26.7159 200.992 26.9879C200.121 27.2056 199.468 27.7497 199.033 28.5114C198.761 28.9467 198.543 29.4364 198.435 29.8717C197.89 31.8849 197.945 33.8437 198.435 35.8569C198.598 36.5099 198.87 37.1084 199.305 37.6525C199.74 38.251 200.285 38.7407 200.992 38.904C203.06 39.4481 205.562 39.176 206.487 36.0746C206.487 36.0202 206.487 36.0202 206.487 35.9658C206.759 34.8775 206.923 33.7893 206.923 32.7011Z" fill="black"/>
<path fill-rule="evenodd" clip-rule="evenodd" d="M43.1453 34.3334C42.6556 34.4966 42.2203 34.4422 41.785 34.4422C38.1939 34.4422 34.6027 34.4422 31.0116 34.4422C30.6307 34.4422 30.2499 34.3878 29.869 34.6055C29.869 34.7687 29.8146 34.9319 29.8146 35.0952C29.9234 35.6393 29.9778 36.1834 30.1954 36.6731C30.8484 38.4686 32.2087 39.448 34.4939 39.176C35.3101 39.0672 36.0718 38.7407 36.7248 38.1966C36.9968 37.979 37.2689 37.7613 37.4865 37.5437C37.9218 37.2172 38.3571 36.9995 38.8468 36.9995C39.9894 36.9995 41.1321 36.9995 42.2747 36.9995C42.4379 36.9995 42.5468 37.054 42.7644 37.1628C42.71 37.3804 42.71 37.5981 42.6556 37.7069C42.4923 38.0878 42.3835 38.4686 42.2203 38.8495C41.0777 41.4613 39.1189 42.9848 36.3439 43.5289C34.2763 43.9642 32.2631 43.8009 30.3043 43.2024C28.1278 42.4951 26.5499 41.1348 25.5161 39.0128C24.972 37.8701 24.6999 36.7275 24.5367 35.476C24.2102 33.1364 24.2646 30.8511 24.8632 28.5658C25.0808 27.8585 25.3529 27.1511 25.6793 26.4438C26.7131 24.4306 28.3455 23.2335 30.4675 22.635C32.6439 22.0365 34.8204 21.9821 36.9968 22.5806C39.4997 23.2335 41.1865 24.7571 42.2203 27.0967C42.7644 28.3482 42.9821 29.654 43.1453 31.0143C43.1997 31.8849 43.1997 32.7011 43.1997 33.5717C43.1997 33.8981 43.1453 34.1158 43.1453 34.3334ZM37.5954 30.5246C37.3233 27.5864 35.5821 26.1717 32.916 26.607C32.3175 26.7158 31.7734 26.9879 31.3381 27.3688C30.6851 27.9129 30.3043 28.6202 30.0866 29.4364C29.9778 29.8173 29.8146 30.1982 30.0322 30.579C31.5013 30.8511 36.4527 30.7967 37.5954 30.5246Z" fill="black"/>
<path fill-rule="evenodd" clip-rule="evenodd" d="M63.5495 43.2024C62.6245 43.3657 58.326 43.4201 57.401 43.2568C57.2378 42.9848 57.0201 42.6583 56.8569 42.3319C55.9319 40.5907 54.9525 38.8495 54.0275 37.1084C53.7555 36.6187 53.429 36.129 53.1025 35.6937C52.8849 35.3672 52.5584 35.0952 52.1775 34.9319C51.6334 34.7143 51.0349 34.9319 50.9261 35.5305C50.8717 35.8025 50.8717 36.0746 50.8717 36.401C50.8717 38.3054 50.8717 40.2642 50.8717 42.1686C50.8717 42.5495 50.9261 42.9304 50.7084 43.3113C50.5452 43.3657 50.4364 43.4201 50.2731 43.4201C48.8585 43.4201 47.4438 43.4201 46.0291 43.4201C45.9747 43.4201 45.8659 43.3657 45.757 43.2568C45.757 43.0392 45.7026 42.8215 45.7026 42.6583C45.7026 41.7333 45.6482 40.7539 45.7026 39.8289C45.7026 32.7011 45.757 25.5188 45.757 18.391C45.757 17.9013 45.757 17.4116 45.8659 16.8674C46.0835 16.813 46.2467 16.813 46.41 16.813C47.1173 16.813 47.8247 16.7586 48.4776 16.813C50.0011 16.9763 50.8717 17.9013 50.9261 19.4248C50.9261 19.6968 50.9261 19.9145 50.9261 20.1865C50.9261 23.288 50.9261 26.4438 50.9261 29.5452C50.9261 29.8173 50.8717 30.1438 50.9805 30.4158C51.2526 30.5246 51.3614 30.3614 51.4702 30.1982C52.4496 29.1099 53.3746 28.0217 54.2996 26.9335C55.279 25.7909 56.2584 24.7027 57.2922 23.56C59.251 23.3968 61.2098 23.4512 63.1686 23.56C63.3862 23.8865 63.1142 23.9953 62.9509 24.1585C61.101 26.1717 59.251 28.1306 57.401 30.0894C57.1834 30.3614 56.9113 30.5791 56.6937 30.8511C56.476 31.0688 56.476 31.2864 56.6393 31.5584C56.7481 31.7761 56.8569 31.9393 56.9657 32.1026C59.0333 35.6393 61.101 39.176 63.223 42.6583C63.3862 42.7127 63.4406 42.9304 63.5495 43.2024Z" fill="black"/>
<path fill-rule="evenodd" clip-rule="evenodd" d="M184.179 33.2452C184.233 34.6055 184.124 36.129 183.635 37.6525C183.417 38.3598 183.145 39.0672 182.764 39.7201C181.894 41.4613 180.479 42.6039 178.629 43.2024C176.017 44.073 173.405 44.073 170.848 43.2024C169.053 42.6039 167.638 41.4613 166.713 39.7745C166.169 38.7951 165.788 37.7069 165.57 36.5643C165.081 33.8437 165.081 31.1232 165.788 28.457C165.842 28.2394 165.897 28.0217 166.006 27.8041C166.985 24.8659 168.998 23.0703 172.045 22.4174C173.95 22.0365 175.908 22.0365 177.867 22.5262C180.479 23.1791 182.274 24.7571 183.308 27.2056C183.907 28.6747 184.179 30.1982 184.233 31.8305C184.179 32.3202 184.179 32.7011 184.179 33.2452ZM178.683 32.7555C178.683 32.3202 178.683 31.9393 178.683 31.5584C178.629 30.7423 178.466 29.9261 178.139 29.1644C177.486 27.6953 176.453 26.8247 174.494 26.8791C174.222 26.8791 173.95 26.9335 173.623 26.9879C172.753 27.1511 172.1 27.5864 171.664 28.3482C171.338 28.8379 171.12 29.4364 170.903 29.9805C170.467 31.4496 170.413 32.9731 170.576 34.4966C170.685 35.5849 170.903 36.6187 171.501 37.5437C171.719 37.8701 171.936 38.1966 172.208 38.4142C173.46 39.5025 175.963 39.8289 177.486 37.8701C177.867 37.3804 178.139 36.7819 178.302 36.1834C178.629 35.0408 178.738 33.8981 178.683 32.7555Z" fill="black"/>
<path fill-rule="evenodd" clip-rule="evenodd" d="M133.631 33.1908C133.577 34.8775 133.413 36.6187 132.815 38.1966C132.652 38.6863 132.434 39.176 132.162 39.6657C131.237 41.4068 129.822 42.6039 127.972 43.2024C125.415 44.0186 122.858 44.073 120.3 43.2024C118.45 42.6039 117.036 41.4613 116.111 39.7745C115.458 38.6319 115.077 37.4348 114.914 36.129C114.641 34.1158 114.587 32.1026 114.914 30.0894C115.131 28.8379 115.458 27.6408 116.002 26.4982C116.927 24.6482 118.341 23.3968 120.3 22.7982C122.803 22.0365 125.306 21.9821 127.809 22.7439C129.822 23.3424 131.346 24.6482 132.325 26.4982C132.869 27.5864 133.25 28.7835 133.413 29.9805C133.468 31.1232 133.522 32.157 133.631 33.1908ZM128.135 32.9187C128.135 32.429 128.081 31.9393 128.081 31.3952C128.027 30.579 127.809 29.7629 127.482 29.0555C126.938 27.8041 125.959 27.0423 124.599 26.9335C122.585 26.7159 121.28 27.532 120.627 29.2188C120.409 29.7085 120.246 30.307 120.191 30.8511C119.974 31.9937 119.974 33.1364 120.028 34.2246C120.083 35.2584 120.3 36.2922 120.79 37.2172C121.443 38.5231 122.531 39.176 123.946 39.2304C125.36 39.2848 126.503 38.6319 127.21 37.3804C127.428 36.9996 127.591 36.6187 127.7 36.1834C128.027 35.0952 128.081 34.0069 128.135 32.9187Z" fill="black"/>
<path fill-rule="evenodd" clip-rule="evenodd" d="M78.3493 43.2024C76.989 43.4201 74.5405 43.4201 73.2347 43.2024C73.1802 43.0392 73.1258 42.8216 73.1258 42.6039C73.1258 42.3319 73.1258 42.1142 73.1258 41.8421C73.1258 38.3054 73.1258 34.7687 73.1258 31.2864C73.1258 30.4158 73.1802 29.4908 73.3435 28.6747C73.942 25.41 75.792 23.3424 79.111 22.5806C81.1243 22.1453 83.0831 22.1453 85.0963 22.635C88.3065 23.3424 90.1021 25.41 90.6462 28.5658C90.8094 29.3276 90.8638 30.0894 90.8638 30.7967C90.8638 34.6599 90.8638 38.4687 90.8638 42.3319C90.8638 42.6583 90.9183 42.9848 90.755 43.2568C90.5918 43.3112 90.483 43.3657 90.3197 43.3657C89.558 43.3657 88.7418 43.3657 87.9801 43.3657C87.6536 43.3657 87.2727 43.2568 87.0007 43.148C86.3477 42.876 85.9124 42.3863 85.8036 41.6789C85.7492 41.298 85.6948 40.8627 85.6948 40.4819C85.6948 37.5437 85.6948 34.5511 85.6948 31.6129C85.6948 31.0688 85.6948 30.5246 85.6404 30.0349C85.586 29.5997 85.5316 29.2188 85.4227 28.8379C85.2051 28.1305 84.7154 27.6409 84.0625 27.3688C82.7566 26.8247 81.5051 26.8247 80.1993 27.3144C79.3831 27.6409 78.839 28.2394 78.6758 29.1099C78.5669 29.6541 78.5125 30.2526 78.5125 30.7967C78.5125 34.4967 78.5125 38.1966 78.5125 41.951C78.4037 42.2774 78.3493 42.7127 78.3493 43.2024Z" fill="black"/>
<path fill-rule="evenodd" clip-rule="evenodd" d="M138.854 18.2277C138.691 18.2277 138.528 18.2277 138.419 18.2277C136.569 17.738 134.719 17.2483 132.869 16.7586C132.325 16.5954 131.944 16.2689 131.563 15.8881C130.203 14.2557 128.788 12.6234 127.428 10.9911C127.156 10.6646 126.938 10.3381 126.503 10.1205C126.34 10.2293 126.177 10.3381 126.068 10.4469C125.469 11.1543 124.871 11.8616 124.272 12.5146C124.055 12.7866 123.837 13.0587 123.51 13.2219C123.184 13.0587 123.021 12.7322 122.803 12.5146C120.463 9.63077 118.069 6.74698 115.73 3.91761C115.403 3.48232 115.022 3.10143 114.696 2.66614C114.315 2.82937 114.097 3.15585 113.88 3.3735C112.139 5.16906 110.397 7.01904 108.602 8.81461C108.33 9.08666 108.058 9.35872 107.731 9.68519C107.078 9.08667 106.643 8.3249 106.153 7.61756C105.664 6.96462 105.228 6.25729 104.63 5.60435C104.412 5.822 104.249 5.98522 104.086 6.20286C102.29 8.48813 100.495 10.7734 98.699 13.0587C98.4814 13.3307 98.2637 13.6028 98.0461 13.8748C97.1211 13.2763 96.7402 12.2969 95.9785 11.6984C95.924 11.6984 95.8696 11.6984 95.8152 11.6984C95.8152 11.6984 95.7608 11.6984 95.7608 11.7528C94.1285 13.4395 92.4961 15.1263 90.9182 16.7586C90.5373 16.7586 90.4285 16.541 90.2109 16.3233C89.5035 15.6704 88.8506 15.0175 88.1977 14.3101C87.6536 13.7116 87.1094 13.6572 86.4021 13.9292C82.8654 15.2895 79.2742 16.541 75.6831 17.8469C75.3566 17.9557 75.0302 18.1733 74.5949 18.1189C74.5949 18.0101 74.5949 17.9013 74.6493 17.8469C74.7581 17.738 74.8669 17.6292 75.0302 17.5748C78.5125 15.3984 81.9948 13.2763 85.6948 11.5352C86.5109 11.1543 87.3271 10.7734 88.1977 10.3925C88.4153 10.5558 88.6329 10.6646 88.8506 10.8278C89.3947 11.2087 89.9388 11.5352 90.4829 11.916C90.9726 12.2969 91.4623 12.2969 91.952 11.916C92.5506 11.4807 93.2035 11.0455 93.802 10.6102C97.2299 8.16167 100.658 5.71317 104.086 3.26467C104.412 3.04702 104.684 2.82939 105.011 2.61174C105.392 2.61174 105.555 2.88379 105.718 3.04703C106.099 3.4279 106.425 3.8632 106.806 4.24408C107.024 4.46172 107.296 4.67935 107.514 4.84259C108.112 4.78817 108.493 4.46172 108.928 4.18966C110.669 2.99262 112.411 1.74115 114.206 0.489697C114.424 0.326463 114.696 0.163233 114.914 0C115.294 0.0544111 115.512 0.380881 115.73 0.598526C116.655 1.57793 117.58 2.66615 118.559 3.64555C120.028 5.16906 121.552 6.74698 123.075 8.21608C124.055 9.19548 124.055 9.14107 125.252 8.48814C125.741 8.21608 126.231 7.99844 126.775 7.72638C127.047 7.94403 127.265 8.05285 127.482 8.2705C128.516 9.19549 129.55 10.1205 130.584 11.0455C132.978 13.2763 135.481 15.3983 138.147 17.3571C138.365 17.5204 138.528 17.6292 138.691 17.8469C138.8 17.9557 138.8 18.0645 138.854 18.2277Z" fill="black"/>
<path fill-rule="evenodd" clip-rule="evenodd" d="M8.26775 43.0936C7.83246 43.148 7.45159 43.2568 7.07071 43.2568C5.65602 43.3112 4.24133 43.2568 2.82664 43.0936C2.50017 43.0392 2.22812 42.9848 1.90165 42.876C1.1399 42.6039 0.595785 42.1142 0.323729 41.3524C0.214907 40.9716 0.106084 40.6451 0.106084 40.2642C0.0516728 39.8289 0.0516737 39.4481 0.0516737 39.0672C0.0516737 32.0482 0.0516737 25.0291 0.0516737 18.0101C0.0516737 17.6292 -0.00273497 17.2483 0.160498 16.9219C0.214909 16.9219 0.214908 16.8674 0.269319 16.8674C1.35754 16.6498 2.39135 16.6498 3.42517 16.9219C4.45898 17.1939 5.11191 18.0645 5.22073 19.1527C5.27514 19.8057 5.22073 20.4586 5.27514 21.1659C5.27514 21.6556 5.27514 22.0909 5.32955 22.5806C6.30895 22.9615 7.39717 22.5806 8.37657 22.8527C8.59422 23.7777 8.4854 24.6482 7.88688 25.4644C7.28835 26.2806 6.36336 26.4438 5.43837 26.4982C5.38396 26.7703 5.27514 26.9335 5.27514 27.1511C5.27514 27.6408 5.27514 28.1306 5.27514 28.6747C5.27514 31.504 5.27514 34.3334 5.27514 37.1628C5.27514 37.5437 5.32955 37.9245 5.32955 38.3054C5.38397 38.8495 5.76484 39.176 6.36336 39.2848C6.74424 39.3392 7.12512 39.3392 7.506 39.3392C7.72364 39.3392 7.9957 39.3936 8.21334 39.3936C8.4854 40.0466 8.53981 41.6789 8.26775 43.0936Z" fill="black"/>
<path fill-rule="evenodd" clip-rule="evenodd" d="M214.758 43.148C214.758 42.7671 214.703 42.3863 214.703 42.0054C214.703 33.8981 214.703 25.8453 214.703 17.738C214.703 17.4116 214.649 17.0307 214.921 16.7042C215.084 16.7042 215.248 16.6498 215.411 16.6498C216.064 16.6498 216.662 16.6498 217.315 16.6498C218.839 16.7042 219.873 17.6836 219.927 19.2071C219.927 19.4248 219.927 19.6424 219.927 19.8601C219.927 27.26 219.927 34.6599 219.927 42.0598C219.927 42.4407 219.927 42.8215 219.873 43.2024C219.655 43.2568 219.437 43.3657 219.274 43.3657C217.859 43.3657 216.445 43.3657 215.03 43.3113C214.976 43.3113 214.921 43.2568 214.758 43.148Z" fill="black"/>
<path fill-rule="evenodd" clip-rule="evenodd" d="M21.9249 22.6895C22.0882 23.8865 22.0882 26.9879 21.8705 27.8585C21.5985 28.0217 21.2176 27.9673 20.8911 27.9673C20.2926 28.0217 19.6941 28.0217 19.0956 28.1306C17.5177 28.3482 16.5382 29.2732 16.1574 30.7967C15.9941 31.3408 15.9397 31.9937 15.9397 32.5923C15.9397 35.6937 15.9397 38.7407 15.9397 41.8422C15.9397 42.2774 15.9397 42.7127 15.8853 43.2024C15.6677 43.2568 15.45 43.3657 15.2324 43.3657C13.8177 43.3657 12.403 43.3657 10.9883 43.3113C10.9339 43.3113 10.8251 43.2568 10.6619 43.2024C10.6619 42.9304 10.6074 42.6583 10.6074 42.3863C10.6074 39.0672 10.6074 35.6937 10.6074 32.3746C10.6074 31.0143 10.8251 29.7629 11.2604 28.457C12.1309 25.9541 13.7633 24.213 16.2662 23.3424C17.8985 22.7439 19.6397 22.5262 21.3808 22.5806C21.5985 22.5806 21.7617 22.635 21.9249 22.6895Z" fill="black"/>
<path fill-rule="evenodd" clip-rule="evenodd" d="M70.0788 43.2568C69.8611 43.3112 69.6979 43.3657 69.5891 43.3657C68.2288 43.3657 66.8141 43.3657 65.4538 43.3657C65.345 43.3657 65.2362 43.3112 65.1274 43.3112C64.9097 42.9848 64.9641 42.6039 64.9641 42.2774C64.9641 38.0334 64.9641 33.7893 64.9641 29.5452C64.9641 27.6409 64.9641 25.682 64.9641 23.7777C64.9641 23.4512 64.9641 23.0703 65.0186 22.7982C65.1274 22.7438 65.2362 22.6894 65.2906 22.6894C66.2156 22.6894 67.195 22.635 68.12 22.6894C69.2626 22.7438 69.9156 23.3968 70.0788 24.485C70.1332 24.8115 70.1332 25.1379 70.1332 25.41C70.1332 31.0143 70.1332 36.6187 70.1332 42.223C70.1332 42.4951 70.0788 42.876 70.0788 43.2568Z" fill="black"/>
<path fill-rule="evenodd" clip-rule="evenodd" d="M69.97 20.5674C69.1538 20.7307 65.8347 20.7307 65.1274 20.5674C64.8553 19.8057 64.8553 17.8468 65.073 16.813C65.345 16.7586 65.6715 16.7042 65.9435 16.6498C66.5421 16.6498 67.1406 16.6498 67.7391 16.6498C68.0112 16.6498 68.2832 16.7042 68.5553 16.813C69.2626 16.9763 69.6979 17.4116 69.9155 18.1189C70.1876 18.7174 70.1876 19.7513 69.97 20.5674Z" fill="black"/>
<path fill-rule="evenodd" clip-rule="evenodd" d="M189.838 39.3393C190.11 40.4275 190.164 42.3863 189.838 43.2024C189.076 43.3113 186.627 43.3113 185.757 43.2024C185.702 43.0392 185.648 42.876 185.648 42.7127C185.648 42.0054 185.648 41.298 185.648 40.5363C185.702 39.7745 186.029 39.4481 186.736 39.3393C187.28 39.176 189.076 39.2304 189.838 39.3393Z" fill="black"/>
</svg>
