<svg width="186" height="66" viewBox="0 0 186 66" fill="none" xmlns="http://www.w3.org/2000/svg">
<path d="M18.3206 52.0878C18.1357 51.9646 17.9919 51.8619 17.7453 51.7181C18.1357 51.5742 18.4644 51.451 18.7726 51.3277C19.1013 51.2044 19.3889 50.999 19.6765 50.7114C19.4094 50.6086 19.1835 50.547 18.8342 50.4237C19.2862 50.1772 19.6354 50.0334 19.9436 49.8279C20.2518 49.6225 20.5394 49.376 20.8887 49.1294C20.7243 49.0473 20.601 48.9651 20.4367 48.8829C21.1968 48.5542 21.8542 48.1844 22.409 47.5475C22.2241 47.4859 22.0597 47.4242 21.7926 47.3215C22.6966 46.9312 23.3951 46.4176 23.9703 45.5958C23.7033 45.5547 23.4978 45.5341 23.2924 45.5136C22.5117 45.4314 21.731 45.3287 20.9708 44.8562C21.6077 44.5069 22.2035 44.1987 22.6349 43.603C22.5322 43.5413 22.45 43.5002 22.3679 43.4591C22.2857 43.4181 22.2035 43.377 22.0186 43.2948C22.6555 42.925 23.2307 42.5346 23.58 41.9389C23.5184 41.8567 23.4567 41.7745 23.3951 41.6718C23.7238 41.302 24.1552 40.9938 24.3401 40.4802C24.1758 40.4186 24.0525 40.3775 23.8471 40.3158C24.0114 40.1926 24.1347 40.0898 24.2785 39.9871C25.5112 39.1653 26.2919 38.0354 26.6 36.5767C26.6822 36.1658 26.7849 35.7755 26.8877 35.3851C27.2164 34.1525 28.1203 33.3307 29.2297 33.1869C29.805 33.1252 30.3802 33.228 30.9349 33.4129C31.1404 33.4745 31.3664 33.5567 31.6745 33.6594C31.5102 33.1252 31.3458 32.6938 31.2226 32.2829C30.5446 32.5089 29.9282 32.8376 29.2708 32.9198C28.6339 33.002 27.9765 32.8171 27.278 32.7554C27.1753 33.9881 26.9493 35.2002 26.333 36.3096C25.7166 37.4191 24.8948 38.3436 23.9087 39.1448C23.7854 39.0832 23.6622 39.0421 23.5389 38.9804C23.4978 39.0215 23.4567 39.0626 23.4567 39.1037C23.2513 39.72 23.0664 40.3158 22.8404 40.9322C22.6144 41.5074 22.3268 42.0416 21.9159 42.4935C21.505 42.9455 21.0119 43.2537 20.375 43.2743C20.2723 43.2743 20.1901 43.2537 20.0463 43.2332C20.3545 42.2881 20.6832 41.3842 20.9708 40.4596C21.2585 39.5351 21.4639 38.5901 21.5461 37.6245C20.149 41.302 18.1151 44.4864 14.828 46.8285C14.0268 44.0755 14.1706 41.3636 14.828 38.6517C14.7869 38.6312 14.7458 38.6312 14.7253 38.6106C14.6226 38.775 14.5198 38.9188 14.4171 39.0832C13.6981 40.2542 12.9379 41.4047 11.9929 42.4319C11.4587 43.0072 10.8835 43.5413 10.1849 43.9317C9.21936 44.4864 8.19213 44.6713 7.10327 44.4042C7.02109 44.3837 6.93891 44.322 6.75401 44.2604C10.0617 42.1032 11.9929 38.9804 13.4104 35.4673C10.9246 38.4257 7.98668 40.6856 4.14486 41.7129C4.06268 41.0965 4.10377 40.5418 4.18595 40.0077C4.49411 38.1587 5.23372 36.4945 6.30203 34.9537C6.81565 34.2346 7.39089 33.5361 7.92505 32.8376C8.02777 32.7144 8.10995 32.5911 8.15104 32.3856C7.98668 32.4473 7.82233 32.5089 7.67852 32.5705C6.81565 32.9609 5.95278 33.3718 5.08991 33.7621C4.28867 34.1114 3.46689 34.2963 2.60402 34.2346C1.74115 34.173 1.04263 33.7827 0.44684 33.0636C0.611196 33.0225 0.713919 32.9814 0.796097 32.9609C1.33026 32.8376 1.86441 32.776 2.37803 32.5911C4.24758 31.8926 5.99386 30.9475 7.71961 29.9614C7.78124 29.9408 7.82233 29.8792 7.84287 29.797C5.35698 30.2696 2.8711 30.6804 0.282484 29.8587C0.467385 29.5916 0.590652 29.3656 0.755008 29.1396C1.47407 28.2562 2.33694 27.5577 3.32307 27.0235C4.06268 26.6126 4.84337 26.2223 5.58297 25.8319C5.72679 25.7498 5.8706 25.6881 6.01441 25.5238C5.89114 25.5032 5.74733 25.4827 5.62406 25.4827C4.78174 25.4416 3.91887 25.4416 3.07654 25.3183C2.54238 25.2361 2.02877 25.0512 1.5357 24.8253C0.960453 24.5376 0.631741 24.0446 0.611196 23.3871C1.49461 23.4899 2.33694 23.6131 3.19981 23.6542C4.04213 23.6953 4.88446 23.6542 5.74733 23.6131C3.67233 23.0584 1.63842 22.4832 0.138672 20.7163C1.22753 19.874 2.50129 19.6891 3.85723 19.4015C3.65179 19.2782 3.50798 19.196 3.38471 19.1139C2.93273 18.8468 2.54238 18.5592 2.21367 18.1277C1.82332 17.5936 1.61788 17.0183 1.74115 16.2376C1.94659 16.3609 2.11095 16.4431 2.2753 16.5458C3.44634 17.3059 4.67901 17.9017 6.0555 18.1688C6.4253 18.251 6.7951 18.2715 7.1649 18.251C6.54857 17.9428 5.89114 17.6552 5.29535 17.3059C4.69956 16.9361 4.12431 16.5253 3.56961 16.0938C3.01491 15.6624 2.54238 15.1282 2.0904 14.5324C3.65179 13.9366 5.25426 13.9161 6.93891 14.0188C6.81565 13.8545 6.73347 13.7517 6.65129 13.6696C6.40476 13.423 6.11713 13.1765 5.89114 12.9094C5.37753 12.3136 5.31589 11.6357 5.6857 10.9371C6.46639 11.4918 7.24708 12.0671 8.04832 12.6013C8.84956 13.1149 9.71243 13.5258 10.6369 13.8134C10.5342 13.7312 10.4109 13.6285 10.3082 13.5463C9.54807 12.9916 8.82901 12.3958 8.21267 11.6767C7.67852 11.081 7.24708 10.4235 6.95946 9.68392C6.89782 9.49902 6.85674 9.31412 6.77456 9.06759C8.66465 8.75942 10.3904 9.12922 12.1367 9.72502C11.0889 8.73888 10.2055 7.65002 9.83569 6.2119C10.1233 6.10918 10.3493 6.17081 10.5958 6.2119C13.3488 6.56116 16.0196 7.21858 18.5466 8.41017C21.6693 9.86883 24.299 11.9644 26.3535 14.7379C27.1342 15.8062 27.5656 17.0389 27.5862 18.3743C27.6067 19.9767 26.8055 21.0245 25.2646 21.4559C24.9359 21.5587 24.5867 21.6203 24.258 21.7025C24.032 22.175 24.0936 22.6475 24.3607 23.079C24.525 23.346 24.7716 23.6131 25.0181 23.7775C25.9426 24.3938 26.9904 24.5171 28.0998 24.5993C28.2847 23.6953 28.3463 22.7913 29.0448 22.1545C28.4285 20.9629 28.408 20.9012 28.8394 20.4082C28.8805 20.4082 28.9216 20.3876 28.9421 20.4082C29.5584 20.8191 30.1748 20.7369 30.7089 20.2644C31.3869 19.6686 32.0443 19.0522 32.7018 18.4359C32.4963 18.1072 32.332 17.8401 32.1471 17.5319C32.332 17.4087 32.4758 17.3059 32.599 17.1827C33.1537 16.7102 33.729 16.2787 34.2221 15.7446C34.5097 15.4364 34.7357 15.0255 34.8795 14.6146C35.126 13.9777 34.9617 13.4025 34.448 12.9711C33.8728 12.478 33.2359 12.1493 32.4347 12.1904C32.1265 12.2109 32.0854 11.9438 31.9211 11.7178C31.6745 11.7589 31.4075 11.8 31.1404 11.8822C30.6268 12.0055 30.1337 12.1698 29.6201 12.2725C29.0037 12.4163 28.3669 12.3753 27.7711 12.1493C27.278 11.9644 26.9698 11.6151 26.8877 11.0193C27.0315 11.081 27.1136 11.1015 27.1958 11.1426C27.7094 11.4097 28.2436 11.4918 28.8188 11.3686C29.5995 11.2248 30.5035 10.8755 30.9555 10.5263C30.6473 10.0743 30.1953 9.90992 29.6817 10.0126C29.3735 10.0743 29.0654 10.2181 28.7572 10.3208C28.6134 10.3824 28.4696 10.4646 28.2847 10.5673C27.9149 10.0537 27.7505 9.51957 27.8943 8.90323C27.9765 8.51289 28.2436 8.26635 28.5929 8.12254C29.0448 7.95818 29.5174 7.79383 29.9899 7.62947C30.2981 6.62279 30.2981 6.62279 31.3869 6.19135C30.9349 4.48616 30.0721 2.96586 29.2914 1.30176C30.0721 1.38393 30.6268 1.75373 31.202 2.18517C31.7567 1.77428 32.2909 1.89754 32.825 2.39061C32.9278 2.00027 33.051 1.65101 33.4619 1.54829C33.5235 1.52774 33.5852 1.42502 33.6057 1.36339C33.6879 0.993585 33.9344 0.911405 34.2631 0.93195C34.3248 0.93195 34.3864 0.91141 34.4686 0.91141C34.6124 0.623787 34.6329 0.192347 35.126 0.110168C35.1671 0.233436 35.2082 0.33616 35.2082 0.438882C35.2287 0.603239 35.2082 0.767594 35.2082 0.93195C35.2082 22.0928 35.2082 43.2332 35.2082 64.394C35.2082 64.5995 35.2082 64.8255 35.2082 65.0515C34.9617 65.072 34.9 64.8871 34.8178 64.7844C33.7495 63.4079 33.3386 61.8465 33.503 60.1208C33.5441 59.7715 33.5852 59.4017 33.6263 59.0114C33.4208 59.0525 33.3386 59.2168 33.2359 59.3401C32.5169 60.2029 31.654 60.922 30.6268 61.3945C28.6956 62.2574 26.826 62.0109 25.1003 60.8809C24.0114 60.1824 23.8882 59.0319 24.6894 58.0252C24.9359 57.6965 25.2441 57.4294 25.655 57.1829C25.6961 57.4089 25.7372 57.5938 25.7783 57.7787C25.8604 58.2307 26.107 58.5183 26.5589 58.6416C27.6067 58.9086 28.6134 58.8265 29.5174 58.1485C30.2364 57.6143 30.75 56.8953 31.1404 56.0529C30.9966 56.1351 30.8322 56.2173 30.6884 56.2995C29.4557 57.0185 28.1409 57.3883 26.6822 57.2651C25.6139 57.1829 24.9565 56.6076 24.5661 55.6831C24.2374 54.8614 24.4429 54.0396 25.1003 53.4438C25.6961 52.9096 26.3946 52.7042 27.2369 52.6631C27.1958 52.9302 27.1753 53.1973 27.1342 53.4438C27.052 54.1629 27.3191 54.5943 28.0382 54.7175C28.408 54.7792 28.7983 54.7792 29.1476 54.7175C30.1542 54.5326 31.0171 54.0807 31.6334 53.2383C31.8183 53.0124 31.9416 52.7453 32.0238 52.396C31.9005 52.4371 31.7567 52.4576 31.6334 52.4987C31.0787 52.6631 30.524 52.7864 29.9282 52.7042C28.7161 52.5193 28.182 51.4099 28.7983 50.2799C28.9421 50.321 29.1065 50.3827 29.2503 50.4237C29.9282 50.6292 30.5651 50.5676 31.1404 50.1567C32.2292 49.376 32.599 48.1844 32.8045 46.8285C32.1265 47.2599 31.5513 47.6502 30.7706 47.4859C31.1404 46.7257 31.5307 46.0272 31.8183 45.2671C32.106 44.5275 32.3114 43.7262 32.4963 42.9455C32.6812 42.1443 32.7839 41.3431 32.7839 40.4802C32.5374 40.4802 32.4141 40.6445 32.2909 40.7884C31.3047 41.8156 30.6473 43.0072 30.483 44.4247C30.4008 45.1027 30.4008 45.8012 30.3597 46.4997C30.1337 46.6025 29.9488 46.3765 29.6817 46.3559C29.4557 46.9312 29.8255 47.4448 29.9488 48.0406C28.8805 48.0611 28.0792 47.5681 27.3602 46.8079C27.2164 46.9312 27.0931 47.0339 26.9904 47.1572C25.2236 49.0883 23.3335 50.8757 21.3817 52.622C21.2585 52.7247 21.1352 52.848 21.0325 52.9713C20.8887 53.1767 20.8887 53.4027 20.9914 53.6287C21.0941 53.8547 21.2995 53.7725 21.4639 53.7725C21.8953 53.8136 22.3062 53.8341 22.7377 53.8958C22.9637 53.9369 23.2102 54.0601 23.4156 54.1834C23.9498 54.5121 24.0731 55.0463 23.7649 55.5804C23.4773 56.0735 23.1486 56.5666 22.8198 57.0185C22.2446 57.8198 21.731 57.9636 20.7038 57.6349C20.7859 57.5116 20.8681 57.3883 20.9297 57.2856C21.0325 57.1007 21.1352 56.9158 21.2174 56.7104C21.279 56.546 21.2174 56.4022 21.053 56.2995C20.4778 55.8886 20.4778 55.8886 20.6627 55.1695C20.6627 55.149 20.6627 55.1079 20.6421 55.0874C20.1285 55.0874 19.6354 55.0668 19.1218 55.1079C18.9369 55.1284 18.7109 55.2517 18.5671 55.3955C18.2384 55.6832 17.9508 56.0324 17.6221 56.32C17.2934 56.5871 16.9236 56.8131 16.5948 57.0391C16.6154 57.4294 16.7181 57.8198 16.5948 58.1485C16.4921 58.4567 16.1634 58.7032 15.8963 58.9908C16.0401 59.4633 16.5743 59.5866 16.9236 59.977C16.7387 60.0797 16.5948 60.2235 16.4305 60.2646C15.6087 60.4906 14.8486 60.3673 14.2733 59.7099C14.0268 59.4223 13.657 59.1963 13.6981 58.7237C13.6981 58.6621 13.5953 58.5594 13.5337 58.4977C12.9379 57.8403 13.2255 56.9364 14.109 56.772C14.5815 56.6898 14.9307 56.4844 15.1567 56.0735C15.2595 55.8886 15.4238 55.7653 15.6293 55.5393C15.4444 55.5599 15.3211 55.5599 15.1978 55.5804C14.9102 55.6421 14.6226 55.7242 14.3349 55.7653C13.8624 55.827 13.4721 56.0119 13.2461 56.4844C13.1434 56.6898 12.9174 56.8542 12.7325 56.998C12.4859 57.1624 12.4243 57.3678 12.4859 57.6349C12.5476 57.8814 12.6298 58.1074 12.7325 58.3334C12.7736 58.4361 12.8352 58.5183 12.8968 58.621C11.9312 58.8675 10.7602 58.2512 10.4726 57.3473C10.4109 57.1418 10.3493 56.9364 10.2877 56.7309C10.0206 55.8886 10.5342 55.1901 11.2122 54.8819C11.6025 54.7176 12.034 54.6148 12.4654 54.6765C12.7119 54.7176 12.8968 54.6354 13.1023 54.5121C13.4515 54.2861 13.8008 54.1012 14.2117 53.8752C13.8008 53.7725 13.431 53.6492 13.0612 53.5876C12.9379 53.5671 12.7736 53.6287 12.6503 53.7109C12.2394 53.9369 11.7874 54.0396 11.3149 53.9574C10.904 53.8752 10.5958 54.019 10.3699 54.3272C10.1439 54.6148 9.95896 54.923 9.75351 55.2106C9.01391 54.8614 8.78792 54.1423 9.15772 53.4232C9.26045 53.2383 9.38371 53.0534 9.4248 52.848C9.48644 52.6426 9.6097 52.5398 9.7946 52.4987C9.9795 52.4576 10.1233 52.396 10.226 52.2111C10.5753 51.451 11.4176 51.225 12.1983 51.4304C12.4654 51.4921 12.7119 51.6359 12.9379 51.7797C13.1639 51.944 13.3899 52.0262 13.657 52.0262C14.6226 52.0468 15.5882 52.1906 16.5332 52.4371C17.2317 52.6631 17.6837 52.5604 18.3206 52.0878Z" fill="black"/>
<path d="M185.841 33.9881C182.204 33.9881 178.609 33.9881 174.952 33.9881C174.952 29.7354 174.952 25.4827 174.952 21.1889C173.288 21.1889 171.686 21.1889 170.021 21.1889C170.021 21.3738 170.001 21.5792 170.001 21.7847C170.001 25.6265 170.001 29.4683 170.001 33.3101C170.001 33.495 170.001 33.7005 170.001 33.947C166.364 34.0908 162.769 34.0497 159.133 34.0087C159.112 33.8032 159.092 33.6389 159.092 33.4745C159.092 31.5433 159.092 29.5916 159.071 27.6604C159.071 27.2495 159.174 26.9208 159.544 26.6948C159.831 26.5099 160.098 26.2839 160.386 26.099C160.653 25.9141 160.797 25.6881 160.797 25.3594C160.797 25.2362 160.797 25.1334 160.797 25.0102C160.797 19.7097 160.797 14.3886 160.797 9.08814C160.797 8.5129 160.694 8.04037 160.098 7.81438C160.078 7.81438 160.078 7.79384 160.057 7.79384C159.092 7.15696 159.071 7.11586 159.071 5.96537C159.071 4.19854 159.071 2.45226 159.071 0.685429C159.071 0.500529 159.071 0.336168 159.071 0.110179C162.708 0.110179 166.303 0.110179 169.939 0.110179C169.939 4.34235 169.939 8.55398 169.939 12.7451C170.33 12.8683 174.007 12.9094 174.911 12.8067C174.932 11.4097 174.911 10.0126 174.932 8.59508C174.932 7.19805 174.932 5.80102 174.932 4.40399C174.932 2.98642 174.932 1.58939 174.932 0.192362C175.548 -0.0130836 184.711 -0.0747222 185.8 0.110179C185.82 0.274535 185.841 0.438891 185.841 0.623792C185.841 2.55498 185.841 4.46562 185.861 6.39681C185.861 6.84879 185.717 7.1775 185.327 7.42403C185.019 7.60894 184.752 7.85547 184.444 8.04037C184.197 8.20473 184.094 8.38963 184.115 8.6978C184.136 8.92379 184.115 9.14978 184.115 9.39631C184.115 13.8956 184.115 18.3948 184.115 22.8941C184.115 23.6131 184.115 24.3322 184.094 25.0718C184.074 25.5854 184.238 25.9347 184.69 26.2017C185.841 26.9208 185.841 26.9413 185.841 28.2767C185.841 29.9614 185.841 31.6666 185.841 33.3512C185.841 33.5978 185.841 33.7621 185.841 33.9881Z" fill="black"/>
<path d="M87.7817 17.0389C87.7817 21.2299 87.7817 25.421 87.7817 29.6121C87.7817 30.4544 87.5557 31.194 87.0421 31.8515C86.4669 32.5911 85.8094 33.2074 85.0082 33.6799C84.5973 33.9265 84.1453 34.0497 83.6523 34.0497C78.6188 34.0497 73.5649 34.0497 68.5315 34.0497C68.0384 34.0497 67.5864 33.9059 67.1755 33.6594C66.251 33.0841 65.5114 32.3445 64.9156 31.42C64.6075 30.9475 64.4637 30.3928 64.4637 29.8381C64.4637 28.9752 64.4637 28.0918 64.4637 27.229C64.4637 20.552 64.4637 13.8955 64.4637 7.21857C64.4637 6.29407 64.4637 5.36957 64.4431 4.46561C64.4431 3.70546 64.6486 3.00694 65.1211 2.41115C65.6347 1.73318 66.251 1.13739 66.9701 0.64432C67.4837 0.295063 68.0179 0.130707 68.6342 0.130707C73.606 0.130707 78.5983 0.130707 83.5701 0.130707C84.1453 0.130707 84.6795 0.295066 85.152 0.582689C86.056 1.15794 86.7956 1.89754 87.3708 2.8015C87.6995 3.29457 87.7817 3.84927 87.7817 4.44506C87.7817 7.89654 87.7817 11.348 87.7817 14.7995C87.7817 15.5186 87.7817 16.2787 87.7817 17.0389ZM78.5161 25.8319C78.5161 19.9767 78.5161 14.1626 78.5161 8.32798C76.9136 8.32798 75.3317 8.32798 73.7087 8.32798C73.5854 14.1832 73.6471 19.9973 73.7292 25.8319C75.3523 25.8319 76.9136 25.8319 78.5161 25.8319Z" fill="black"/>
<path d="M132.938 34.0497C132.938 30.5572 132.938 27.1262 132.938 23.6748C135.979 23.6748 138.979 23.6748 142.019 23.6748C142.019 24.3733 142.019 25.0512 142.019 25.7087C142.553 25.9347 146.21 25.9757 146.929 25.7908C146.929 24.2705 146.929 22.7502 146.929 21.1683C146.724 21.1683 146.518 21.1683 146.334 21.1683C143.313 21.1683 140.293 21.1478 137.253 21.1683C136.411 21.1683 135.671 20.9218 135.013 20.4082C134.356 19.8946 133.781 19.2782 133.308 18.5797C133 18.1072 132.856 17.6141 132.856 17.0389C132.856 12.7656 132.856 8.49234 132.856 4.21908C132.856 3.66437 133.021 3.15076 133.329 2.69878C133.863 1.89754 134.52 1.21958 135.322 0.664873C135.876 0.295072 136.452 0.110168 137.13 0.110168C139.143 0.130713 141.177 0.110168 143.19 0.110168C147.258 0.110168 151.305 0.110168 155.373 0.110168C155.62 0.110168 155.866 0.130716 156.113 0.15126C156.113 3.62329 156.113 7.05422 156.113 10.5057C153.093 10.5057 150.093 10.5057 147.032 10.5057C146.95 9.80719 147.032 9.10868 146.991 8.41017C146.642 8.30744 142.718 8.2869 142.184 8.38962C142.019 9.10868 141.999 12.3136 142.184 13.0532C142.348 13.0532 142.553 13.0532 142.738 13.0532C145.656 13.0532 148.552 13.0532 151.47 13.0327C152.62 13.0121 153.586 13.4025 154.428 14.1626C154.942 14.6352 155.394 15.1488 155.763 15.724C156.031 16.1555 156.174 16.6074 156.174 17.121C156.174 21.4149 156.174 25.7087 156.174 29.9819C156.174 30.4955 156.031 30.9475 155.763 31.379C155.168 32.324 154.387 33.1047 153.421 33.6594C152.99 33.9265 152.517 34.0497 152.024 34.0497C145.861 34.0497 139.698 34.0497 133.534 34.0497C133.37 34.0497 133.185 34.0497 132.938 34.0497Z" fill="black"/>
<path d="M36.5846 0.130715C36.8106 0.110171 37.0161 0.0896301 37.2215 0.0896301C43.919 0.0896301 50.596 0.0896301 57.2935 0.0896301C57.9099 0.0896301 58.4646 0.253985 58.9782 0.582698C59.9027 1.17849 60.6423 1.91809 61.197 2.86314C61.4435 3.27403 61.5668 3.70547 61.5668 4.17799C61.5668 8.4718 61.5668 12.7451 61.5668 17.0389C61.5668 17.5525 61.423 18.0045 61.1559 18.4359C60.6012 19.3193 59.8821 20.0589 58.9987 20.6342C58.444 20.9834 57.8277 21.1478 57.1703 21.1478C54.1502 21.1478 51.1302 21.1478 48.1101 21.1478C47.9252 21.1478 47.7198 21.1478 47.4938 21.1478C47.4732 21.497 47.4527 21.7847 47.4527 22.0723C47.4527 23.2022 47.4527 24.3322 47.4527 25.4827C47.4527 25.7498 47.5349 25.9347 47.7609 26.099C48.1307 26.3455 48.4799 26.6126 48.8497 26.8797C49.0552 27.0235 49.1784 27.229 49.1784 27.496C49.1784 29.5916 49.1784 31.6666 49.1784 33.7621C49.1784 33.8238 49.1579 33.8854 49.1579 33.947C49.1373 33.9676 49.1168 33.9881 49.1168 33.9881C49.0963 34.0087 49.0963 34.0087 49.0757 34.0087C49.0141 34.0292 48.9524 34.0497 48.8908 34.0497C44.9052 34.0497 40.899 34.0497 36.9133 34.0497C36.8517 34.0497 36.7901 34.0497 36.7284 34.0292C36.7079 34.0292 36.6668 33.9881 36.6052 33.9676C36.6052 33.8238 36.5846 33.6799 36.5846 33.5156C36.5846 31.6049 36.5846 29.6943 36.5641 27.8042C36.5641 27.3317 36.7079 26.9824 37.1188 26.7359C37.427 26.551 37.7146 26.325 38.0228 26.1196C38.2077 25.9963 38.3309 25.8319 38.3104 25.5854C38.3104 25.4621 38.3104 25.3594 38.3104 25.2361C38.3104 19.8124 38.3104 14.3886 38.3104 8.96487C38.3104 8.55398 38.2282 8.2869 37.8584 8.08145C37.5297 7.87601 37.2215 7.62948 36.8928 7.38294C36.6874 7.21858 36.5641 7.03368 36.5641 6.74606C36.5641 4.62997 36.5641 2.51388 36.5846 0.377252C36.5435 0.295074 36.5641 0.253983 36.5846 0.130715ZM47.4938 12.8889C49.1168 12.8889 50.6987 12.8889 52.2601 12.8889C52.4656 12.0465 52.4245 8.92378 52.219 8.32798C50.6576 8.32798 49.0757 8.32798 47.4938 8.32798C47.4938 9.84828 47.4938 11.348 47.4938 12.8889Z" fill="black"/>
<path d="M105.183 25.8114C105.183 24.4144 105.183 23.0379 105.183 21.7025C105.553 21.5792 113.627 21.5587 114.325 21.6614C114.407 25.7292 114.448 29.8176 114.366 33.947C113.832 33.9676 113.36 34.0087 112.866 34.0087C109.436 34.0292 106.005 34.0498 102.553 34.0498C98.814 34.0498 95.0543 34.0292 91.3152 34.0292C91.1303 34.0292 90.966 34.0087 90.74 34.0087C90.7194 33.7827 90.6783 33.5978 90.6783 33.4129C90.6783 31.4817 90.6783 29.5711 90.6783 27.6399C90.6783 27.2084 90.8222 26.9208 91.1714 26.6948C91.5001 26.4894 91.8083 26.2223 92.137 26.0169C92.363 25.873 92.4452 25.7087 92.4246 25.4416C92.4041 25.2362 92.4246 25.0513 92.4246 24.8458C92.4246 19.6481 92.4246 14.4503 92.4246 9.27306C92.4246 9.12925 92.4246 8.98544 92.4246 8.82108C92.4246 8.45128 92.2603 8.16365 91.9316 7.95821C91.6234 7.75276 91.3152 7.52677 91.0071 7.30078C90.7811 7.13642 90.6783 6.91044 90.6783 6.62281C90.6783 4.56836 90.6783 2.51391 90.6783 0.459453C90.6783 0.377275 90.6989 0.295095 90.6989 0.233462C91.0481 0.130739 102.512 0.0896537 103.252 0.192376C103.272 0.377277 103.293 0.562174 103.293 0.747075C103.293 2.67826 103.293 4.5889 103.293 6.52009C103.293 6.95153 103.128 7.23915 102.779 7.46514C102.471 7.67059 102.163 7.89658 101.834 8.10202C101.629 8.22529 101.546 8.38964 101.546 8.63618C101.546 8.77999 101.546 8.9238 101.546 9.08816C101.546 14.4708 101.546 19.833 101.546 25.2156C101.546 25.4005 101.546 25.606 101.546 25.832C102.8 25.8114 103.95 25.8114 105.183 25.8114Z" fill="black"/>
<path d="M165.358 64.8255C165.337 64.6611 165.337 64.5173 165.337 64.3735C165.337 62.9354 165.337 61.5178 165.337 60.0797C165.337 59.6893 165.461 59.4223 165.789 59.2168C165.913 59.1346 166.015 59.0319 166.159 58.9703C166.549 58.7854 166.652 58.4978 166.652 58.0663C166.632 53.9369 166.632 49.8074 166.652 45.6985C166.652 45.3287 166.57 45.0616 166.221 44.9178C166.077 44.8562 165.954 44.7329 165.81 44.6507C165.502 44.4453 165.337 44.1577 165.337 43.7879C165.337 42.2676 165.337 40.7678 165.337 39.2475C165.337 39.1859 165.358 39.1243 165.358 39.001C165.604 38.9804 165.83 38.9599 166.077 38.9599C170.884 38.9599 175.671 38.9599 180.479 38.9599C180.643 38.9599 180.807 38.9805 180.972 38.9599C181.711 38.8983 182.328 39.1243 182.882 39.5968C183.149 39.8228 183.396 40.0488 183.642 40.2953C184.238 40.9116 184.505 41.6307 184.485 42.5346C184.444 44.4864 184.444 46.4381 184.485 48.3898C184.505 49.5814 184.074 50.4854 183.19 51.2455C182.923 51.4715 182.636 51.6975 182.307 51.9646C182.451 52.0673 182.554 52.1495 182.656 52.2317C183.211 52.622 183.684 53.0945 184.074 53.6698C184.341 54.0601 184.464 54.4916 184.464 54.9641C184.464 55.9913 184.464 57.0391 184.444 58.0663C184.444 58.4772 184.546 58.7648 184.937 58.9497C184.998 58.9703 185.039 59.0114 185.101 59.0525C185.615 59.3606 185.841 59.751 185.82 60.3879C185.759 61.6616 185.8 62.9559 185.8 64.2297C185.8 64.4146 185.8 64.5789 185.8 64.8255C183.006 64.9077 180.273 64.9693 177.479 64.846C177.479 63.7366 177.479 62.6478 177.479 61.5794C177.479 60.5111 177.479 59.4428 177.479 58.3745C177.479 57.2856 177.479 56.2173 177.479 55.0668C176.205 54.9436 174.973 54.9641 173.658 55.0463C173.658 58.3334 173.658 61.5794 173.658 64.8666C170.843 64.8255 168.111 64.8255 165.358 64.8255ZM173.699 45.2054C173.699 46.397 173.699 47.5475 173.699 48.7186C174.952 48.7186 176.164 48.7186 177.376 48.7186C177.479 48.1433 177.459 45.5752 177.356 45.2054C176.144 45.2054 174.932 45.2054 173.699 45.2054Z" fill="black"/>
<path d="M59.4919 39.0215C59.759 39.001 59.9644 38.9804 60.1493 38.9804C65.0595 38.9804 69.9696 39.001 74.8798 38.9599C76.5644 38.9599 77.5505 39.8844 78.2901 41.2198C78.475 41.528 78.5161 41.9389 78.5161 42.3087C78.5367 44.4453 78.5161 46.5819 78.5367 48.7186C78.5367 49.5814 78.2285 50.3005 77.6327 50.8757C77.2629 51.2455 76.852 51.5742 76.4617 51.944C76.8931 52.3755 77.3246 52.8069 77.7765 53.2178C78.3312 53.7314 78.5572 54.3478 78.5367 55.1079C78.4956 56.0735 78.5367 57.0391 78.5161 58.0252C78.5161 58.4567 78.6394 58.7443 79.0298 58.9497C79.153 59.0114 79.2557 59.0935 79.3585 59.1552C79.6666 59.3401 79.8104 59.6277 79.8104 59.977C79.8104 60.7166 79.8104 61.4562 79.8104 62.1958C79.8104 63.0586 79.8104 63.901 79.8104 64.7433C79.4201 64.8666 72.1062 64.8871 71.531 64.7638C71.531 61.5589 71.531 58.3334 71.531 55.149C71.1612 55.0257 68.4493 55.0052 67.7713 55.1079C67.7713 58.3128 67.7713 61.5178 67.7713 64.7227C67.0728 64.8871 60.3342 64.9282 59.5124 64.7844C59.4919 64.6611 59.4714 64.5173 59.4714 64.3735C59.4714 62.9765 59.4714 61.5794 59.4508 60.1824C59.4508 59.6688 59.6152 59.3195 60.0877 59.1141C60.5808 58.8881 60.7657 58.4772 60.7862 57.9636C60.7862 57.5732 60.7862 57.1829 60.7862 56.772C60.7862 53.1151 60.7862 49.4787 60.7862 45.8218C60.7862 45.4314 60.6835 45.2054 60.3548 44.9794C59.3686 44.322 59.4508 44.4864 59.4714 43.2332C59.4919 42.0416 59.4714 40.8295 59.4714 39.6379C59.4919 39.4324 59.4919 39.2475 59.4919 39.0215ZM71.4899 45.2671C70.2572 45.2671 69.0657 45.2671 67.833 45.2671C67.833 46.4176 67.833 47.5475 67.833 48.698C69.0657 48.698 70.2572 48.698 71.4899 48.698C71.4899 47.5475 71.4899 46.4176 71.4899 45.2671Z" fill="black"/>
<path d="M142.738 39.001C142.759 39.2681 142.779 39.4324 142.779 39.6173C142.779 40.9527 142.779 42.2881 142.8 43.603C142.8 44.1166 142.677 44.5275 142.204 44.7329C141.588 45.0205 141.403 45.4725 141.444 46.1505C141.506 46.9928 141.444 47.8557 141.465 48.7186C141.485 49.376 141.28 49.9512 140.848 50.4443C140.478 50.8552 140.047 51.2044 139.636 51.5948C139.533 51.677 139.431 51.7386 139.287 51.8413C139.39 51.9235 139.451 52.0057 139.533 52.0673C139.78 52.2728 140.026 52.4987 140.273 52.7042C141.136 53.3822 141.547 54.2245 141.465 55.3544C141.382 56.2584 141.465 57.1624 141.444 58.0663C141.444 58.4361 141.567 58.7237 141.896 58.8675C142.615 59.1963 142.82 59.751 142.779 60.5111C142.738 61.7232 142.759 62.9354 142.759 64.168C142.759 64.3529 142.759 64.5173 142.759 64.7638C139.985 64.8871 137.273 64.8871 134.5 64.8049C134.438 64.1475 134.479 63.5106 134.479 62.8737C134.479 62.2163 134.479 61.5589 134.479 60.9015C134.479 60.2646 134.479 59.6277 134.479 58.9703C134.479 58.3128 134.479 57.6554 134.479 56.998C134.479 56.3611 134.479 55.7242 134.479 55.0668C133.206 55.0668 131.973 55.0668 130.72 55.0668C130.72 58.2923 130.72 61.4972 130.72 64.6816C130.144 64.8871 123.2 64.9282 122.44 64.7227C122.42 64.5378 122.399 64.3118 122.399 64.1064C122.399 62.7916 122.42 61.4767 122.399 60.1618C122.399 59.6688 122.522 59.2579 122.974 59.073C123.591 58.7854 123.714 58.3128 123.714 57.676C123.694 53.752 123.694 49.828 123.714 45.9039C123.714 45.452 123.611 45.1027 123.18 44.9178C123.098 44.8767 123.057 44.8151 122.974 44.774C122.522 44.5275 122.379 44.1577 122.379 43.644C122.42 42.2881 122.399 40.9116 122.399 39.5557C122.399 39.4119 122.399 39.2681 122.399 39.1448C122.44 39.1037 122.461 39.0832 122.481 39.0832C122.502 39.0626 122.502 39.0626 122.522 39.0626C122.605 39.0421 122.687 39.0421 122.769 39.0421C125.358 39.0421 127.926 39.0421 130.514 39.0421C130.555 39.0421 130.596 39.0626 130.699 39.1037C130.699 42.3086 130.699 45.5136 130.699 48.7596C131.973 48.7596 133.185 48.7596 134.438 48.7596C134.438 45.5547 134.438 42.3497 134.438 39.1037C137.232 38.9188 139.965 38.9393 142.738 39.001Z" fill="black"/>
<path d="M80.9197 39.0215C83.6933 39.0215 86.4051 39.0215 89.1786 39.0215C89.2197 40.6651 89.1992 42.2881 89.1992 43.8906C89.1992 45.5136 89.1992 47.1366 89.1992 48.7802C89.1992 50.3827 89.1992 52.0057 89.1992 53.6082C89.1992 55.2312 89.1992 56.8542 89.1992 58.4567C89.795 58.6416 92.1781 58.6621 92.9383 58.4978C92.9794 56.3611 92.9588 54.1834 92.9588 52.0262C92.9588 49.8691 92.9588 47.7119 92.9588 45.5752C92.9588 43.3975 92.9588 41.2403 92.9588 39.0832C93.3286 38.9599 100.088 38.9188 101.197 39.0215C101.218 39.1654 101.259 39.3092 101.259 39.4735C101.279 40.9116 101.279 42.3292 101.279 43.7673C101.279 44.1577 101.136 44.4658 100.807 44.6713C100.519 44.8562 100.149 45.0205 100.006 45.3082C99.8618 45.5752 99.944 45.9861 99.944 46.3354C99.944 51.3277 99.9234 56.32 99.944 61.3329C99.944 62.1752 99.718 62.8737 99.1222 63.4695C98.9989 63.5928 98.8962 63.6955 98.7729 63.8188C98.095 64.5584 97.2732 64.8871 96.2665 64.8666C92.6507 64.846 89.0348 64.846 85.419 64.846C84.8232 64.846 84.289 64.6817 83.8371 64.2708C83.5289 63.9831 83.2002 63.6955 82.892 63.3874C82.3784 62.8532 82.1319 62.1958 82.1319 61.4562C82.1319 60.8193 82.1319 60.1824 82.1319 59.525C82.1319 54.9436 82.1319 50.3621 82.1319 45.7601C82.1319 45.3903 82.0291 45.1438 81.7004 44.9178C80.7143 44.2604 80.817 44.3631 80.817 43.2537C80.817 42.0005 80.817 40.7473 80.8376 39.5146C80.8992 39.3913 80.9197 39.227 80.9197 39.0215Z" fill="black"/>
<path d="M163.036 56.9774C163.098 59.5866 163.118 62.1752 163.057 64.7844C157.037 64.7844 151.059 64.7844 145.039 64.7844C145.019 64.6611 144.998 64.5173 144.998 64.3735C144.998 62.9148 144.978 61.4562 144.978 59.977C144.978 59.6688 145.08 59.4428 145.347 59.2784C145.512 59.1757 145.656 59.0319 145.841 58.9497C146.231 58.7648 146.354 58.4567 146.334 58.0252C146.293 57.4089 146.334 56.772 146.334 56.1557C146.334 52.6631 146.334 49.1911 146.334 45.6985C146.334 45.3492 146.231 45.1438 145.943 44.9384C144.834 44.1577 145.039 44.4864 145.019 43.151C144.998 41.9594 145.019 40.7473 145.019 39.5557C145.019 39.3708 145.039 39.2064 145.039 39.001C151.059 39.001 157.037 39.001 163.077 39.001C163.16 41.5896 163.139 44.1782 163.098 46.7668C162.728 46.8901 157.058 46.9106 156.174 46.8079C156.154 46.2943 156.133 45.7601 156.113 45.1849C155.209 45.1027 154.305 45.1438 153.38 45.1438C153.38 46.3559 153.38 47.527 153.38 48.7802C154.469 48.8418 155.558 48.8007 156.667 48.8007C157.777 48.8007 158.866 48.8007 160.037 48.8007C160.14 50.8552 160.16 52.848 160.057 54.923C159.503 54.9846 158.948 54.9435 158.393 54.9641C157.839 54.9641 157.284 54.9641 156.709 54.9641C156.174 54.9641 155.62 54.9641 155.086 54.9641C154.531 54.9641 153.976 54.9641 153.38 54.9641C153.38 56.1968 153.38 57.3678 153.38 58.5183C153.976 58.7032 155.373 58.7237 156.133 58.5388C156.133 58.2923 156.133 58.0458 156.133 57.7787C156.133 57.5116 156.133 57.2651 156.133 57.0185C156.483 56.9364 162.132 56.8953 163.036 56.9774Z" fill="black"/>
<path d="M117.386 33.9881C117.366 33.7621 117.345 33.5772 117.345 33.3923C117.345 31.5228 117.345 29.6532 117.325 27.7837C117.325 27.2906 117.468 26.9208 117.9 26.6743C118.146 26.5304 118.372 26.325 118.639 26.1812C118.948 25.9963 119.091 25.7292 119.091 25.3799C119.071 24.3322 119.091 23.2844 119.091 22.2161C119.091 17.7579 119.091 13.3203 119.091 8.86214C119.091 8.49234 119.009 8.2458 118.681 8.0609C118.352 7.876 118.064 7.60892 117.756 7.40347C117.468 7.21857 117.345 6.97204 117.345 6.62278C117.345 4.65051 117.345 2.67824 117.345 0.70596C117.345 0.562148 117.366 0.418335 117.366 0.274523C117.961 0.0896223 128.994 0.0279862 129.918 0.233432C129.939 0.438877 129.959 0.664869 129.959 0.890859C129.959 2.49333 129.959 4.11635 129.959 5.71883C129.959 5.9859 129.98 6.25298 129.98 6.49952C129.98 6.91041 129.857 7.21858 129.487 7.46511C129.138 7.6911 128.809 7.93763 128.48 8.16362C128.316 8.26635 128.213 8.41016 128.254 8.61561C128.275 8.69778 128.254 8.77996 128.254 8.86214C128.254 14.3475 128.254 19.8329 128.254 25.3183C128.254 25.7087 128.336 25.9552 128.686 26.1606C129.014 26.3661 129.323 26.6126 129.651 26.8386C129.877 27.003 129.98 27.1879 129.98 27.4549C129.98 29.5505 129.98 31.6255 129.98 33.721C129.98 33.8032 129.959 33.8854 129.939 33.9881C125.748 33.9881 121.598 33.9881 117.386 33.9881Z" fill="black"/>
<path d="M120.139 39.001C120.139 42.1443 120.139 45.2465 120.139 48.4104C117.859 48.5131 115.599 48.5131 113.277 48.4515C113.195 47.3832 113.277 46.3354 113.216 45.3082C112.866 45.2054 111.408 45.1643 110.565 45.2465C110.463 45.5958 110.422 57.6554 110.524 58.5799C110.956 58.6416 111.387 58.6005 111.819 58.6005C112.25 58.6005 112.661 58.6005 113.154 58.6005C113.216 57.5527 113.134 56.5255 113.195 55.4572C115.496 55.3339 117.777 55.3544 120.098 55.3955C120.221 58.5594 120.221 61.6822 120.16 64.846C119.913 64.846 119.728 64.846 119.523 64.846C115.537 64.846 111.572 64.846 107.587 64.846C107.443 64.846 107.299 64.8255 107.135 64.846C105.45 65.0309 104.505 63.942 103.683 62.7299C103.375 62.2779 103.375 61.7232 103.375 61.2096C103.375 58.9086 103.395 56.6076 103.395 54.3067C103.395 50.4032 103.416 46.4792 103.395 42.5757C103.395 41.6923 103.642 40.9322 104.279 40.3158C104.464 40.1515 104.628 39.9666 104.792 39.7817C105.368 39.227 106.046 38.9599 106.826 38.9599C111.12 38.9599 115.414 38.9599 119.687 38.9804C119.872 38.9804 119.995 38.9804 120.139 39.001Z" fill="black"/>
<path d="M57.2114 48.4309C55.6089 48.4309 54.0681 48.4309 52.4656 48.4309C52.4656 47.3831 52.4656 46.3559 52.4656 45.267C51.7671 45.226 51.1302 45.2465 50.4317 45.2465C50.4112 45.5136 50.3906 45.7396 50.3906 45.9656C50.3906 47.8146 50.3906 49.6841 50.3906 51.5331C50.3906 53.6492 50.3906 55.7653 50.3701 57.8814C50.3701 58.3745 50.4728 58.7443 50.9453 58.9703C51.5206 59.2373 51.726 59.7099 51.7055 60.3262C51.6849 61.6616 51.7055 62.997 51.7055 64.3118C51.7055 64.4351 51.6849 64.5378 51.6849 64.7022C51.5 64.7227 51.3357 64.7638 51.1713 64.7638C50.329 64.7844 49.4867 64.8049 48.6649 64.8049C46.6721 64.8049 44.6998 64.8049 42.707 64.7844C42.5426 64.7844 42.3783 64.7638 42.1728 64.7638C42.1523 64.5584 42.1112 64.3735 42.1112 64.1886C42.1112 62.8121 42.1112 61.4356 42.0906 60.0386C42.0906 59.6071 42.2344 59.2784 42.6042 59.1141C43.3028 58.8059 43.426 58.2512 43.426 57.5938C43.4055 56.1351 43.3849 54.6764 43.3849 53.2178C43.3849 50.7524 43.3849 48.2871 43.4055 45.8218C43.4055 45.6368 43.4055 45.4314 43.4055 45.226C42.707 45.226 42.0701 45.226 41.3921 45.226C41.2072 46.2532 41.4127 47.2804 41.2688 48.3693C39.7075 48.5131 38.1666 48.472 36.6258 48.4309C36.5025 48.0611 36.482 39.6378 36.5847 39.0215C43.4466 38.9393 50.329 38.9393 57.2114 39.001C57.2114 42.1854 57.2114 45.2876 57.2114 48.4309Z" fill="black"/>
<path d="M78.5162 25.8319C76.9137 25.8319 75.3523 25.8319 73.7293 25.8319C73.6471 19.9973 73.5855 14.1627 73.7087 8.328C75.3318 8.328 76.9137 8.328 78.5162 8.328C78.5162 14.1627 78.5162 19.9768 78.5162 25.8319Z" fill="white"/>
<path d="M47.4939 12.8889C47.4939 11.3481 47.4939 9.8483 47.4939 8.328C49.0964 8.328 50.6578 8.328 52.2191 8.328C52.4451 8.92379 52.4657 12.0466 52.2602 12.8889C50.6988 12.8889 49.1169 12.8889 47.4939 12.8889Z" fill="white"/>
<path d="M173.699 45.2054C174.952 45.2054 176.144 45.2054 177.356 45.2054C177.459 45.5752 177.479 48.1228 177.376 48.7186C176.164 48.7186 174.952 48.7186 173.699 48.7186C173.699 47.5475 173.699 46.397 173.699 45.2054Z" fill="white"/>
<path d="M71.4899 45.2671C71.4899 46.4176 71.4899 47.5475 71.4899 48.698C70.2573 48.698 69.0657 48.698 67.833 48.698C67.833 47.5475 67.833 46.4176 67.833 45.2671C69.0657 45.2671 70.2778 45.2671 71.4899 45.2671Z" fill="white"/>
</svg>
